<svg width="23" height="18" viewBox="0 0 23 18" fill="none" xmlns="http://www.w3.org/2000/svg">
<path fill-rule="evenodd" clip-rule="evenodd" d="M1.96856 4.66597L11.4833 8.27254L20.9975 4.66597L11.4833 1.0594L1.96856 4.66597ZM11.4833 9.33207C11.4191 9.33207 11.3549 9.32082 11.2944 9.29781L0.333268 5.14306C0.132315 5.06636 0.000259399 4.87716 0.000259399 4.66597C0.000259399 4.45478 0.132315 4.26558 0.333268 4.18888L11.2944 0.0341328C11.416 -0.0113776 11.5501 -0.0113776 11.6717 0.0341328L22.6328 4.18888C22.8338 4.26558 22.9664 4.45478 22.9664 4.66597C22.9664 4.87716 22.8338 5.06636 22.6328 5.14306L11.6717 9.29781C11.6112 9.32082 11.547 9.33207 11.4833 9.33207Z" fill="#007AFF"/>
<path fill-rule="evenodd" clip-rule="evenodd" d="M11.4831 13.8064C11.4194 13.8064 11.3552 13.7951 11.2946 13.7721L0.333531 9.61739C0.132577 9.54069 0 9.35149 0 9.1403C0 8.92911 0.132577 8.73991 0.333531 8.66321L5.81408 6.58609C6.08289 6.48433 6.3851 6.61473 6.48949 6.87807C6.59336 7.14193 6.45974 7.43801 6.19093 7.53977L1.9683 9.1403L11.4831 12.7469L20.9978 9.1403L16.7752 7.53977C16.5064 7.43801 16.3727 7.14193 16.4766 6.87807C16.581 6.61524 16.8822 6.48484 17.152 6.58609L22.6326 8.66321C22.8335 8.73991 22.9661 8.92911 22.9661 9.1403C22.9661 9.35149 22.8335 9.54069 22.6326 9.61739L11.6715 13.7721C11.6109 13.7951 11.5467 13.8064 11.4831 13.8064Z" fill="#007AFF"/>
<path fill-rule="evenodd" clip-rule="evenodd" d="M11.4831 17.8973C11.4194 17.8973 11.3552 17.886 11.2946 17.863L0.333531 13.7083C0.132577 13.6316 0 13.4423 0 13.2312C0 13.02 0.132577 12.8308 0.333531 12.7541L5.5531 10.7726C5.82243 10.6703 6.12412 10.8012 6.22851 11.0651C6.33238 11.3279 6.19876 11.624 5.92995 11.7268L1.96778 13.2306L11.4831 16.8377L20.9983 13.2306L17.0362 11.7268C16.7673 11.624 16.6337 11.3279 16.7376 11.0651C16.842 10.8012 17.1442 10.6708 17.413 10.7726L22.6326 12.7541C22.8335 12.8308 22.9661 13.02 22.9661 13.2312C22.9661 13.4423 22.8335 13.6316 22.6326 13.7083L11.6715 17.863C11.6109 17.886 11.5467 17.8973 11.4831 17.8973Z" fill="#007AFF"/>
</svg>
