<svg width="18" height="22" viewBox="0 0 18 22" fill="none" xmlns="http://www.w3.org/2000/svg">
<path fill-rule="evenodd" clip-rule="evenodd" d="M1.40283 0.949853C1.14518 0.949853 0.935223 1.16309 0.935223 1.42478V20.4218C0.935223 20.6835 1.14518 20.8968 1.40283 20.8968H16.3664C16.6241 20.8968 16.834 20.6835 16.834 20.4218V6.37066L11.4967 0.949853H1.40283ZM16.3664 21.8466H1.40283C0.629405 21.8466 0 21.2074 0 20.4218V1.42478C0 0.639251 0.629405 0 1.40283 0H11.6903C11.8142 0 11.9334 0.0498673 12.0209 0.139153L17.6322 5.83827C17.7201 5.92708 17.7692 6.04819 17.7692 6.17404V20.4218C17.7692 21.2074 17.1398 21.8466 16.3664 21.8466Z" fill="#007AFF"/>
<path fill-rule="evenodd" clip-rule="evenodd" d="M17.3016 6.64882H11.6903C11.4322 6.64882 11.2227 6.43606 11.2227 6.1739V0.949707H12.1579V5.69897H17.3016V6.64882Z" fill="#007AFF"/>
<path fill-rule="evenodd" clip-rule="evenodd" d="M8.88462 8.07388H3.27328C3.01516 8.07388 2.80567 7.86111 2.80567 7.59895C2.80567 7.33679 3.01516 7.12402 3.27328 7.12402H8.88462C9.14274 7.12402 9.35223 7.33679 9.35223 7.59895C9.35223 7.86111 9.14274 8.07388 8.88462 8.07388Z" fill="#007AFF"/>
<path fill-rule="evenodd" clip-rule="evenodd" d="M14.496 10.9235H3.27328C3.01516 10.9235 2.80567 10.7107 2.80567 10.4486C2.80567 10.1864 3.01516 9.97363 3.27328 9.97363H14.496C14.7541 9.97363 14.9636 10.1864 14.9636 10.4486C14.9636 10.7107 14.7541 10.9235 14.496 10.9235Z" fill="#007AFF"/>
<path fill-rule="evenodd" clip-rule="evenodd" d="M14.496 13.7731H3.27328C3.01516 13.7731 2.80567 13.5603 2.80567 13.2982C2.80567 13.036 3.01516 12.8232 3.27328 12.8232H14.496C14.7541 12.8232 14.9636 13.036 14.9636 13.2982C14.9636 13.5603 14.7541 13.7731 14.496 13.7731Z" fill="#007AFF"/>
<path fill-rule="evenodd" clip-rule="evenodd" d="M14.496 16.6222H3.27328C3.01516 16.6222 2.80567 16.4094 2.80567 16.1473C2.80567 15.8851 3.01516 15.6724 3.27328 15.6724H14.496C14.7541 15.6724 14.9636 15.8851 14.9636 16.1473C14.9636 16.4094 14.7541 16.6222 14.496 16.6222Z" fill="#007AFF"/>
</svg>
