<svg width="90" height="90" viewBox="0 0 90 90" fill="none" xmlns="http://www.w3.org/2000/svg">
<g filter="url(#filter0_d_1_399)">
<rect x="16" y="15" width="55.021" height="55.021" rx="4" fill="#808FA3"/>
</g>
<path fill-rule="evenodd" clip-rule="evenodd" d="M50.6142 50.2536C50.0502 50.434 49.4477 50.1174 49.2695 49.5501C49.0913 48.9827 49.4057 48.379 49.9708 48.1997C52.7339 47.3271 54.1353 45.0871 54.1353 41.541C54.1353 37.4672 50.8343 34.1538 46.7753 34.1538C43.2474 34.1538 40.2096 36.6774 39.5504 40.1543L39.3313 41.3106L38.2034 40.9884C37.8414 40.8851 37.476 40.8329 37.1163 40.8329C34.9262 40.8329 33.1447 42.6213 33.1447 44.8182C33.1447 47.0162 34.9262 48.8045 37.1163 48.8045L37.3353 48.7887C37.9345 48.766 38.4326 49.2131 38.4633 49.8065C38.495 50.4011 38.0411 50.9072 37.4488 50.939L37.3773 50.9447C37.2911 50.9515 37.2048 50.9572 37.1163 50.9572C33.7438 50.9572 31 48.2031 31 44.8182C31 41.4332 33.7438 38.6791 37.1163 38.6791C37.3115 38.6791 37.5067 38.6894 37.7018 38.7087C38.9194 34.7643 42.5801 32 46.7753 32C52.0167 32 56.28 36.2803 56.28 41.541C56.28 46.0709 54.3214 49.0837 50.6142 50.2536ZM42.9535 42.476C42.9569 42.4726 42.958 42.467 42.9614 42.4635C43.1725 42.2525 43.4471 42.1481 43.7228 42.1481C43.9974 42.1481 44.2732 42.2525 44.4831 42.4635C44.4854 42.4658 44.4854 42.4704 44.4888 42.4738L47.4494 45.4445C47.8681 45.8655 47.8681 46.5475 47.4494 46.9674C47.2394 47.1773 46.9648 47.2828 46.6902 47.2828C46.4156 47.2828 46.1421 47.1773 45.9322 46.9674L44.7974 45.8281V52.606C44.7974 53.2006 44.3174 53.6828 43.724 53.6828C43.1316 53.6828 42.6516 53.2006 42.6516 52.606V45.8235L41.5123 46.9674C41.3035 47.1773 41.0289 47.2828 40.7543 47.2828C40.4797 47.2828 40.2051 47.1773 39.9963 46.9674C39.5765 46.5475 39.5765 45.8655 39.9963 45.4445L42.9535 42.476Z" fill="white"/>
<defs>
<filter id="filter0_d_1_399" x="0" y="0" width="89.021" height="89.021" filterUnits="userSpaceOnUse" color-interpolation-filters="sRGB">
<feFlood flood-opacity="0" result="BackgroundImageFix"/>
<feColorMatrix in="SourceAlpha" type="matrix" values="0 0 0 0 0 0 0 0 0 0 0 0 0 0 0 0 0 0 127 0" result="hardAlpha"/>
<feOffset dx="1" dy="2"/>
<feGaussianBlur stdDeviation="8.5"/>
<feColorMatrix type="matrix" values="0 0 0 0 0 0 0 0 0 0 0 0 0 0 0 0 0 0 0.07 0"/>
<feBlend mode="normal" in2="BackgroundImageFix" result="effect1_dropShadow_1_399"/>
<feBlend mode="normal" in="SourceGraphic" in2="effect1_dropShadow_1_399" result="shape"/>
</filter>
</defs>
</svg>
