<svg width="21" height="21" viewBox="0 0 21 21" fill="none" xmlns="http://www.w3.org/2000/svg">
<path fill-rule="evenodd" clip-rule="evenodd" d="M5.69565 8.19264C5.71728 8.20631 5.74156 8.22086 5.76673 8.23673C5.97157 8.36372 6.11946 8.45543 6.17597 8.64899C6.39671 9.4153 7.89109 12.2632 9.91214 12.2632C11.9314 12.2632 13.4271 9.41486 13.6479 8.65031C13.7031 8.45675 13.8518 8.36416 14.0571 8.23629C14.0823 8.22086 14.1066 8.20631 14.1278 8.19264C14.669 7.20808 14.5838 6.76849 14.5202 6.62298C14.443 6.44618 14.2805 6.40297 14.2624 6.39856C14.0554 6.34918 13.9004 6.15561 13.9119 5.94309C13.9123 5.93207 13.9688 4.80465 13.6947 3.77071C13.6682 3.67459 12.9746 1.32275 9.91214 1.32275C6.82582 1.32275 6.13535 3.74822 6.12873 3.77291C5.8537 4.80994 5.91153 5.93163 5.91197 5.94265C5.92477 6.16443 5.76982 6.36064 5.55129 6.40076C5.5429 6.40297 5.38044 6.44618 5.30318 6.62298C5.24005 6.76849 5.1544 7.20808 5.69565 8.19264ZM9.91214 13.145C7.47655 13.145 5.77644 10.2217 5.37028 9.02862C5.34821 9.01451 5.32393 8.99996 5.30053 8.98541C5.1416 8.88708 5.03653 8.82183 4.96766 8.69881C4.38271 7.66575 4.2282 6.83771 4.50853 6.23939C4.6423 5.95279 4.84537 5.77951 5.02373 5.67634C5.02329 5.22925 5.05596 4.37476 5.27581 3.54496C5.28464 3.51233 6.15699 0.440918 9.91214 0.440918C13.6673 0.440918 14.5392 3.51233 14.548 3.54319C14.7683 4.37432 14.801 5.22925 14.8006 5.67634C14.9785 5.77951 15.1815 5.95279 15.3153 6.23895C15.5956 6.83771 15.4407 7.66575 14.8557 8.70013C14.7873 8.82183 14.6822 8.88664 14.5233 8.98497C14.4999 8.99996 14.4761 9.01451 14.4536 9.02862C14.0456 10.2239 12.3447 13.145 9.91214 13.145Z" fill="#007AFF"/>
<path fill-rule="evenodd" clip-rule="evenodd" d="M13.0968 13.2837C13.0284 13.2837 12.9591 13.2678 12.8937 13.2343C11.9984 12.7701 11.7318 12.3172 11.6876 12.2313C11.5764 12.0148 11.6616 11.7489 11.8783 11.6378C12.0933 11.528 12.3529 11.6096 12.4668 11.8168C12.4805 11.8384 12.6725 12.1263 13.3007 12.4513C13.5171 12.5637 13.6014 12.8296 13.4893 13.0456C13.4107 13.1973 13.2562 13.2837 13.0968 13.2837Z" fill="#007AFF"/>
<path fill-rule="evenodd" clip-rule="evenodd" d="M10.1423 20.7544C5.0636 20.7544 0.41181 19.9105 0.361923 19.9012C0.144719 19.8615 -0.00979567 19.6671 0.000358173 19.4466C0.210499 15.0498 2.95292 13.6843 4.99782 13.0401C6.59109 12.5379 7.42503 11.7249 7.43297 11.7165C7.60647 11.5454 7.88592 11.5463 8.05721 11.7192C8.22895 11.8924 8.22806 12.1715 8.05457 12.3431C8.01483 12.3823 7.05861 13.3153 5.26314 13.881C3.27122 14.5088 1.21264 15.6252 0.908465 19.1001C2.23067 19.3166 6.73854 19.9828 11.3197 19.8562C11.5674 19.8501 11.7669 20.0414 11.7735 20.2848C11.7801 20.5282 11.5881 20.731 11.3449 20.7376C10.9422 20.7491 10.5409 20.7544 10.1423 20.7544Z" fill="#007AFF"/>
<path fill-rule="evenodd" clip-rule="evenodd" d="M13.981 15.0063V19.8564H19.2791L19.2787 15.0063H13.981ZM19.2787 20.7382H13.981C13.4941 20.7382 13.0981 20.3427 13.0981 19.8564V15.0063C13.0981 14.52 13.4941 14.1245 13.981 14.1245H19.2787C19.7656 14.1245 20.1616 14.52 20.1616 15.0063V19.8564C20.1616 20.3427 19.7656 20.7382 19.2787 20.7382Z" fill="#007AFF"/>
<path fill-rule="evenodd" clip-rule="evenodd" d="M19.2787 17.2109H13.981C13.7369 17.2109 13.5395 17.0134 13.5395 16.77C13.5395 16.5266 13.7369 16.3291 13.981 16.3291H19.2787C19.5228 16.3291 19.7201 16.5266 19.7201 16.77C19.7201 17.0134 19.5228 17.2109 19.2787 17.2109Z" fill="#007AFF"/>
<path fill-rule="evenodd" clip-rule="evenodd" d="M15.3054 15.8882C15.0613 15.8882 14.864 15.6906 14.864 15.4472V13.6836C14.864 13.4402 15.0613 13.2427 15.3054 13.2427C15.5496 13.2427 15.7469 13.4402 15.7469 13.6836V15.4472C15.7469 15.6906 15.5496 15.8882 15.3054 15.8882Z" fill="#007AFF"/>
<path fill-rule="evenodd" clip-rule="evenodd" d="M17.9543 15.8882C17.7101 15.8882 17.5128 15.6906 17.5128 15.4472V13.6836C17.5128 13.4402 17.7101 13.2427 17.9543 13.2427C18.1984 13.2427 18.3957 13.4402 18.3957 13.6836V15.4472C18.3957 15.6906 18.1984 15.8882 17.9543 15.8882Z" fill="#007AFF"/>
</svg>
