<svg width="40" height="46" viewBox="0 0 40 46" fill="none" xmlns="http://www.w3.org/2000/svg">
<path fill-rule="evenodd" clip-rule="evenodd" d="M38.095 33.6136L35.8013 31.32C35.5941 31.1147 35.6217 30.1653 35.6217 29.8731V20.0038C35.6217 13.3222 31.0502 7.45979 24.7496 5.35959V5.17602C24.7496 2.51918 22.5013 0.265015 19.8307 0.265015C17.1679 0.265015 14.9098 2.51918 14.9098 5.17602V5.35959C8.60921 7.45979 4.03969 13.3222 4.03969 20.0038V29.8731C4.03969 30.1653 4.06535 31.1147 3.86007 31.32L1.56642 33.6136C0.855829 34.3242 0.0899658 35.6428 0.0899658 36.8626C0.0899658 38.4023 1.4855 39.6557 3.20079 39.6557H11.8385C12.6497 43.0882 15.7487 45.6523 19.4359 45.6523C23.1231 45.6523 26.913 43.1751 27.7262 39.7425L36.4606 39.6557C38.1759 39.6557 39.5694 38.4023 39.5694 36.8626C39.5694 35.6467 38.8056 34.3262 38.095 33.6136ZM19.4359 42.1822C17.689 42.1822 16.181 41.144 15.498 39.6557H23.3718C22.6889 41.144 21.1808 42.1822 19.4359 42.1822ZM25.7523 35.7948C25.4799 35.7276 26.0247 35.7276 25.7523 35.7948H13.9091C13.6367 35.7276 14.1815 35.7276 13.9091 35.7948H4.0397C4.12655 35.4552 4.00219 35.8303 4.0397 35.7948L6.32347 33.7696C7.17816 32.9168 7.98745 31.0811 7.98745 29.8731V20.0037C7.98745 14.3822 11.5187 9.67643 17.0554 8.35196C17.8371 8.16444 18.3878 7.46767 18.3878 6.6643V5.176C18.3878 4.45356 19.1063 4.21275 19.8307 4.21275C20.5748 4.21275 21.2697 4.43974 21.2697 5.176V6.6643C21.2697 7.46767 21.8223 8.16444 22.604 8.35196C28.1407 9.67643 31.674 14.3822 31.674 20.0037V29.8731C31.674 31.0811 32.4832 32.9168 33.3379 33.7715L35.6296 36.0612C35.6671 36.0987 35.5862 35.7494 35.6217 35.7948H25.7523Z" fill="white"/>
</svg>
