<svg width="11" height="11" viewBox="0 0 11 11" fill="none" xmlns="http://www.w3.org/2000/svg">
<g opacity="0.74">
<path fill-rule="evenodd" clip-rule="evenodd" d="M1.69466 5.01748L9.07661 8.16041L9.9135 1.14919L1.69466 5.01748ZM9.25092 8.64839C9.22187 8.64839 9.19302 8.64247 9.16605 8.63121L1.12276 5.20667C1.04951 5.17546 1.00157 5.10654 0.999912 5.03012C0.998459 4.95369 1.04349 4.88319 1.1155 4.84922L10.0708 0.634746C10.1386 0.602754 10.2198 0.608481 10.282 0.65015C10.3443 0.691621 10.3775 0.762123 10.369 0.834006L9.45698 8.47323C9.44951 8.53563 9.41112 8.59132 9.35364 8.62233C9.32189 8.63971 9.2864 8.64839 9.25092 8.64839Z" fill="#4DA1FF"/>
<path d="M1.69466 5.01748L1.63078 4.88176L1.32785 5.02434L1.6359 5.15549L1.69466 5.01748ZM9.07661 8.16041L9.01785 8.29843L9.20185 8.37677L9.22555 8.17819L9.07661 8.16041ZM9.9135 1.14919L10.0624 1.16697L10.0945 0.898204L9.84962 1.01347L9.9135 1.14919ZM9.16605 8.63121L9.10729 8.76923L9.10828 8.76964L9.16605 8.63121ZM1.12276 5.20667L1.06397 5.34467L1.064 5.34468L1.12276 5.20667ZM0.999912 5.03012L0.849939 5.03297L0.849947 5.03337L0.999912 5.03012ZM1.1155 4.84922L1.05162 4.7135L1.0515 4.71356L1.1155 4.84922ZM10.0708 0.634746L10.1347 0.770468L10.1348 0.770423L10.0708 0.634746ZM10.282 0.65015L10.1986 0.774804L10.1989 0.774986L10.282 0.65015ZM10.369 0.834006L10.5179 0.851788L10.5179 0.851637L10.369 0.834006ZM9.45698 8.47323L9.60591 8.49106L9.60592 8.49101L9.45698 8.47323ZM9.35364 8.62233L9.28243 8.49031L9.28162 8.49075L9.35364 8.62233ZM1.6359 5.15549L9.01785 8.29843L9.13537 8.0224L1.75341 4.87947L1.6359 5.15549ZM9.22555 8.17819L10.0624 1.16697L9.76456 1.13141L8.92767 8.14264L9.22555 8.17819ZM9.84962 1.01347L1.63078 4.88176L1.75853 5.1532L9.97738 1.28491L9.84962 1.01347ZM9.25092 8.49839C9.24227 8.49839 9.23302 8.49662 9.22381 8.49278L9.10828 8.76964C9.15303 8.78832 9.20147 8.79839 9.25092 8.79839V8.49839ZM9.22481 8.4932L1.18152 5.06866L1.064 5.34468L9.10729 8.76923L9.22481 8.4932ZM1.18154 5.06867C1.15966 5.05934 1.15019 5.04131 1.14988 5.02686L0.849947 5.03337C0.852954 5.17178 0.939357 5.29159 1.06397 5.34467L1.18154 5.06867ZM1.14988 5.02727C1.14961 5.01298 1.15809 4.99498 1.17949 4.98489L1.0515 4.71356C0.928887 4.7714 0.847305 4.8944 0.849939 5.03297L1.14988 5.02727ZM1.17937 4.98495L10.1347 0.770468L10.0069 0.499025L1.05162 4.7135L1.17937 4.98495ZM10.1348 0.770423C10.1555 0.760656 10.1806 0.762763 10.1986 0.774803L10.3655 0.525497C10.259 0.4542 10.1218 0.444853 10.0068 0.49907L10.1348 0.770423ZM10.1989 0.774986C10.2158 0.786274 10.2217 0.802578 10.22 0.816376L10.5179 0.851637C10.5333 0.721668 10.4728 0.596969 10.3652 0.525314L10.1989 0.774986ZM10.22 0.816225L9.30803 8.45545L9.60592 8.49101L10.5179 0.851788L10.22 0.816225ZM9.30804 8.4554C9.30657 8.46765 9.29852 8.48163 9.28243 8.49031L9.42485 8.75435C9.52372 8.70102 9.59244 8.60362 9.60591 8.49106L9.30804 8.4554ZM9.28162 8.49075C9.27267 8.49564 9.26207 8.49839 9.25092 8.49839V8.79839C9.31074 8.79839 9.37111 8.78377 9.42566 8.75391L9.28162 8.49075Z" fill="#4DA1FF"/>
<path fill-rule="evenodd" clip-rule="evenodd" d="M4.90148 9.88174C4.8826 9.88174 4.86351 9.87917 4.84463 9.87424C4.75477 9.84975 4.69335 9.77135 4.69397 9.68268L4.71991 6.52295C4.72033 6.47576 4.73859 6.43034 4.77117 6.39479L10.0033 0.682405C10.0789 0.600253 10.21 0.591761 10.2963 0.66325C10.3827 0.735133 10.3916 0.859745 10.3162 0.941898L5.13452 6.59918L5.1148 8.97233L6.25818 7.18887C6.31815 7.09565 6.44577 7.06623 6.54351 7.1231C6.64125 7.17978 6.67217 7.30163 6.6124 7.39445L5.0787 9.78714C5.04031 9.84698 4.97245 9.88174 4.90148 9.88174Z" fill="#4DA1FF"/>
<path d="M4.90148 9.88174C4.8826 9.88174 4.86351 9.87917 4.84463 9.87424C4.75477 9.84975 4.69335 9.77135 4.69397 9.68268L4.71991 6.52295C4.72033 6.47576 4.73859 6.43034 4.77117 6.39479L10.0033 0.682405C10.0789 0.600253 10.21 0.591761 10.2963 0.66325C10.3827 0.735133 10.3916 0.859745 10.3162 0.941898L5.13452 6.59918L5.1148 8.97233L6.25818 7.18887C6.31815 7.09565 6.44577 7.06623 6.54351 7.1231C6.64125 7.17978 6.67217 7.30163 6.6124 7.39445L5.0787 9.78714C5.04031 9.84698 4.97245 9.88174 4.90148 9.88174" stroke="#4DA1FF" stroke-width="0.3"/>
</g>
</svg>
