<svg width="21" height="23" viewBox="0 0 21 23" fill="none" xmlns="http://www.w3.org/2000/svg">
<mask id="path-1-inside-1_1_603" fill="white">
<path fill-rule="evenodd" clip-rule="evenodd" d="M19.9898 20.2812L15.7933 15.9023C16.9739 14.3355 17.6842 12.3641 17.6842 10.2217C17.6842 5.13476 13.7178 0.996094 8.84268 0.996094C3.96646 0.996094 0 5.13476 0 10.2217C0 15.3075 3.96646 19.4462 8.84268 19.4462C10.7528 19.4462 12.5191 18.8027 13.967 17.7241L18.2031 22.1449C18.4501 22.4021 18.773 22.5301 19.097 22.5301C19.4199 22.5301 19.7428 22.4021 19.9898 22.1449C20.4826 21.6305 20.4826 20.7967 19.9898 20.2812ZM2.52535 10.2217C2.52535 6.58834 5.35999 3.63247 8.84268 3.63247C12.3254 3.63247 15.1578 6.58834 15.1578 10.2217C15.1578 13.8551 12.3254 16.8098 8.84268 16.8098C5.35999 16.8098 2.52535 13.8551 2.52535 10.2217Z"/>
</mask>
<path fill-rule="evenodd" clip-rule="evenodd" d="M19.9898 20.2812L15.7933 15.9023C16.9739 14.3355 17.6842 12.3641 17.6842 10.2217C17.6842 5.13476 13.7178 0.996094 8.84268 0.996094C3.96646 0.996094 0 5.13476 0 10.2217C0 15.3075 3.96646 19.4462 8.84268 19.4462C10.7528 19.4462 12.5191 18.8027 13.967 17.7241L18.2031 22.1449C18.4501 22.4021 18.773 22.5301 19.097 22.5301C19.4199 22.5301 19.7428 22.4021 19.9898 22.1449C20.4826 21.6305 20.4826 20.7967 19.9898 20.2812ZM2.52535 10.2217C2.52535 6.58834 5.35999 3.63247 8.84268 3.63247C12.3254 3.63247 15.1578 6.58834 15.1578 10.2217C15.1578 13.8551 12.3254 16.8098 8.84268 16.8098C5.35999 16.8098 2.52535 13.8551 2.52535 10.2217Z" fill="#989898" fill-opacity="0.61"/>
<path d="M15.7933 15.9023L15.3141 15.5413L15.007 15.9489L15.3601 16.3175L15.7933 15.9023ZM13.967 17.7241L14.4002 17.309L14.0336 16.9264L13.6086 17.2429L13.967 17.7241ZM18.2031 22.1449L17.7699 22.56L17.7704 22.5605L18.2031 22.1449ZM19.9898 22.1449L20.4225 22.5605L20.423 22.56L19.9898 22.1449ZM20.423 19.866L16.2265 15.4872L15.3601 16.3175L19.5566 20.6963L20.423 19.866ZM16.2725 16.2634C17.529 14.5957 18.2842 12.4985 18.2842 10.2217H17.0842C17.0842 12.2298 16.4187 14.0752 15.3141 15.5413L16.2725 16.2634ZM18.2842 10.2217C18.2842 4.82769 14.0729 0.396094 8.84268 0.396094V1.59609C13.3626 1.59609 17.0842 5.44184 17.0842 10.2217H18.2842ZM8.84268 0.396094C3.61135 0.396094 -0.6 4.82764 -0.6 10.2217H0.6C0.6 5.44189 4.32157 1.59609 8.84268 1.59609V0.396094ZM-0.6 10.2217C-0.6 15.6147 3.6114 20.0462 8.84268 20.0462V18.8462C4.32152 18.8462 0.6 15.0004 0.6 10.2217H-0.6ZM8.84268 20.0462C10.8908 20.0462 12.7812 19.3556 14.3255 18.2053L13.6086 17.2429C12.257 18.2498 10.6149 18.8462 8.84268 18.8462V20.0462ZM13.5338 18.1392L17.7699 22.56L18.6363 21.7298L14.4002 17.309L13.5338 18.1392ZM17.7704 22.5605C18.1327 22.9378 18.6129 23.1301 19.097 23.1301V21.9301C18.9331 21.9301 18.7675 21.8664 18.6359 21.7293L17.7704 22.5605ZM19.097 23.1301C19.5803 23.1301 20.0604 22.9376 20.4225 22.5605L19.557 21.7293C19.4252 21.8666 19.2595 21.9301 19.097 21.9301V23.1301ZM20.423 22.56C21.1385 21.8133 21.1378 20.6137 20.4235 19.8666L19.5561 20.6958C19.8274 20.9796 19.8268 21.4478 19.5566 21.7298L20.423 22.56ZM3.12535 10.2217C3.12535 6.89568 5.71489 4.23247 8.84268 4.23247V3.03247C5.00509 3.03247 1.92535 6.281 1.92535 10.2217H3.12535ZM8.84268 4.23247C11.9702 4.23247 14.5577 6.89539 14.5577 10.2217H15.7577C15.7577 6.28129 12.6806 3.03247 8.84268 3.03247V4.23247ZM14.5577 10.2217C14.5577 13.5479 11.9703 16.2098 8.84268 16.2098V17.4098C12.6804 17.4098 15.7577 14.1623 15.7577 10.2217H14.5577ZM8.84268 16.2098C5.71476 16.2098 3.12535 13.5476 3.12535 10.2217H1.92535C1.92535 14.1626 5.00522 17.4098 8.84268 17.4098V16.2098Z" fill="white" mask="url(#path-1-inside-1_1_603)"/>
</svg>
