<svg width="24" height="22" viewBox="0 0 24 22" fill="none" xmlns="http://www.w3.org/2000/svg">
<path fill-rule="evenodd" clip-rule="evenodd" d="M18.2036 19.4762C17.9663 19.4762 17.7534 19.3125 17.7039 19.0744C17.6477 18.8026 17.8254 18.5374 18.1015 18.4822C20.4118 18.0166 21.5787 16.8081 22.3495 15.925C21.8079 15.0646 20.5869 13.6682 18.8672 13.0851C16.8841 12.413 16.4584 12.1568 16.4584 10.9619C16.4584 10.7389 16.6074 10.543 16.8244 10.4802C17.148 10.3863 17.5518 10.3838 18.0194 10.3812C18.7156 10.3772 19.5818 10.3722 19.8651 10.001C20.1051 9.68557 20.0045 9.46004 19.5037 8.7051C19.3812 8.52026 19.2521 8.32436 19.1281 8.11441C18.1628 6.47694 18.0903 5.75213 18.0061 4.9128L17.9897 4.74805C17.7794 2.73839 16.6896 1.64842 14.7509 1.50828C13.0562 1.63034 12.0062 2.48473 11.63 4.04736C11.5652 4.31759 11.2896 4.48385 11.0154 4.42006C10.7413 4.35627 10.5714 4.08553 10.6367 3.8158C11.1165 1.82221 12.5657 0.645343 14.7167 0.503195C14.7392 0.50219 14.7622 0.50219 14.7851 0.503195C17.2445 0.666439 18.7432 2.13664 19.005 4.64508L19.0224 4.81436C19.1005 5.59642 19.1571 6.1615 20.0111 7.61011C20.1255 7.80449 20.2454 7.98481 20.3587 8.1561C20.836 8.87588 21.3771 9.6916 20.6814 10.6033C20.0943 11.3738 18.9474 11.3803 18.0255 11.3858C17.8637 11.3868 17.6998 11.3873 17.5518 11.3934C17.687 11.6038 18.0775 11.7555 19.1995 12.1357C21.4302 12.8912 22.9044 14.7637 23.424 15.7512C23.519 15.9326 23.4934 16.1531 23.3592 16.3078L23.2816 16.3977C22.4736 17.3329 21.1209 18.8996 18.3067 19.4657C18.272 19.4727 18.2373 19.4762 18.2036 19.4762Z" fill="#007AFF"/>
<path fill-rule="evenodd" clip-rule="evenodd" d="M9.26296 21.7997C4.1462 21.7997 0.553641 21.0513 0.403058 21.0191C0.159062 20.9679 -0.0109184 20.7499 0.000311565 20.5043C0.197346 16.4372 2.77104 15.175 4.69034 14.5787C6.12165 14.1342 6.89396 13.4044 6.90162 13.3968C7.10273 13.203 7.42534 13.206 7.62288 13.4039C7.81941 13.6013 7.81839 13.9177 7.61829 14.1121C7.58103 14.1488 6.67906 15.0142 4.99763 15.5366C3.20493 16.0936 1.35403 17.0786 1.05235 20.119C2.15595 20.3154 5.2646 20.7951 9.26296 20.7951C13.2613 20.7951 16.37 20.3154 17.4736 20.119C17.1714 17.0786 15.321 16.0936 13.5283 15.5371C11.8464 15.0142 10.9449 14.1488 10.9071 14.1121C10.707 13.9172 10.7055 13.5988 10.9036 13.4014C11.1011 13.205 11.4237 13.2035 11.6243 13.3968C11.6452 13.4169 12.416 14.1377 13.8356 14.5792C15.7544 15.175 18.3286 16.4367 18.5256 20.5043C18.5368 20.7499 18.3669 20.9679 18.1229 21.0191C17.9723 21.0513 14.3792 21.7997 9.26296 21.7997Z" fill="#007AFF"/>
<path fill-rule="evenodd" clip-rule="evenodd" d="M5.44331 10.1899C5.45658 10.1979 5.47087 10.2064 5.48516 10.215C5.67862 10.3335 5.84656 10.436 5.90935 10.651C6.10791 11.3311 7.45346 13.8671 9.26301 13.8671C11.0726 13.8671 12.4176 11.3311 12.6167 10.6505C12.6795 10.436 12.8469 10.3335 13.0409 10.215C13.0552 10.2064 13.0689 10.1979 13.0822 10.1899C13.5661 9.31387 13.4681 8.95623 13.4247 8.86532C13.3757 8.76185 13.2752 8.7287 13.2741 8.7287C13.022 8.68299 12.8433 8.45997 12.8571 8.20782C12.8576 8.19727 12.9087 7.18616 12.6596 6.26094C12.6356 6.17756 12.0113 4.10712 9.26301 4.10712C6.48769 4.10712 5.87106 6.24135 5.86545 6.26295C5.61686 7.18616 5.6679 8.19727 5.66841 8.20782C5.6822 8.45997 5.50354 8.68299 5.25138 8.7287C5.24678 8.73071 5.1452 8.76185 5.0962 8.87537C5.05638 8.96779 4.96859 9.32944 5.44331 10.1899ZM9.26301 14.8717C6.80876 14.8717 5.32386 12.0001 4.98339 11.091C4.97114 11.0834 4.95838 11.0764 4.94664 11.0684C4.79299 10.9744 4.68171 10.9071 4.60463 10.7735C4.04671 9.80159 3.90225 9.01601 4.17585 8.44038C4.29785 8.18371 4.47651 8.01896 4.64292 7.91398C4.64547 7.48854 4.68222 6.73561 4.87926 6.00377C5.15439 4.99869 6.42388 3.10254 9.26301 3.10254C12.1021 3.10254 13.3716 4.99869 13.6458 6.00176C13.8438 6.73511 13.8806 7.48804 13.8831 7.91398C14.049 8.01896 14.2277 8.18371 14.3497 8.44038C14.6233 9.01601 14.4793 9.80159 13.9209 10.773C13.8443 10.9071 13.733 10.9744 13.5789 11.0684C13.5671 11.0764 13.5549 11.0834 13.5426 11.091C13.2011 12.0006 11.7168 14.8717 9.26301 14.8717Z" fill="#007AFF"/>
</svg>
