<svg width="21" height="21" viewBox="0 0 21 21" fill="none" xmlns="http://www.w3.org/2000/svg">
<path fill-rule="evenodd" clip-rule="evenodd" d="M6.05247 16.9465C6.1383 16.9465 6.22458 16.9707 6.29991 17.0196C7.0906 17.53 7.95206 17.8883 8.86054 18.0837C9.04086 18.1225 9.18056 18.2668 9.21343 18.4485L9.44306 19.7122C9.48278 19.929 9.67178 20.087 9.89228 20.087H11.1075C11.3285 20.087 11.517 19.929 11.5568 19.7117L11.7864 18.4485C11.8193 18.2668 11.959 18.1225 12.1393 18.0837C13.0478 17.8883 13.9092 17.53 14.6999 17.0196C14.8551 16.9182 15.056 16.9223 15.2076 17.0278L16.2667 17.761C16.4443 17.8838 16.6972 17.86 16.8492 17.7085L17.7088 16.8493C17.865 16.6932 17.8869 16.448 17.7609 16.2668L17.0277 15.2072C16.9227 15.0552 16.9195 14.8552 17.0195 14.7C17.5303 13.9093 17.8883 13.0474 18.0836 12.1398C18.1225 11.9586 18.2663 11.8198 18.4484 11.786L19.7121 11.5564C19.9294 11.5171 20.0869 11.3281 20.0869 11.1076V9.89237C20.0869 9.67141 19.9294 9.48241 19.7121 9.4427L18.4484 9.21398C18.2663 9.1802 18.1225 9.04141 18.0836 8.86017C17.8883 7.95261 17.5303 7.0907 17.0195 6.3C16.9195 6.14478 16.9227 5.94437 17.0277 5.79235L17.7609 4.73322C17.8869 4.55198 17.865 4.30683 17.7088 4.1507L16.8492 3.29152C16.6967 3.13996 16.4438 3.11576 16.2667 3.23902L15.2076 3.9722C15.056 4.07765 14.8556 4.0813 14.6999 3.98041C13.9088 3.46957 13.0478 3.11165 12.1393 2.91626C11.959 2.87746 11.8193 2.7332 11.7864 2.5515L11.5568 1.28785C11.517 1.071 11.3285 0.913043 11.1075 0.913043H9.89228C9.67178 0.913043 9.48278 1.071 9.44306 1.2883L9.21343 2.5515C9.18056 2.7332 9.04086 2.87746 8.86054 2.91626C7.95252 3.11165 7.09106 3.46957 6.29991 3.98041C6.14469 4.0813 5.94428 4.07765 5.79271 3.9722L4.73313 3.23902C4.556 3.11622 4.30263 3.13996 4.1506 3.29152L3.29143 4.1507C3.1353 4.30683 3.11339 4.55198 3.23893 4.73322L3.9721 5.79235C4.07756 5.94437 4.08076 6.14478 3.98032 6.3C3.46993 7.0907 3.11202 7.95261 2.91617 8.86017C2.87737 9.04141 2.73356 9.1802 2.55187 9.21398L1.28776 9.44315C1.07045 9.48241 0.912952 9.67141 0.912952 9.89237V11.1076C0.912952 11.3281 1.07045 11.5171 1.28776 11.5568L2.55187 11.786C2.73356 11.8198 2.87737 11.9586 2.91617 12.1398C3.11202 13.0474 3.46993 13.9093 3.98032 14.7C4.08076 14.8552 4.07756 15.0552 3.9721 15.2072L3.23893 16.2668C3.11339 16.448 3.1353 16.6932 3.29143 16.8493L4.1506 17.7085C4.30263 17.86 4.55554 17.8833 4.73358 17.761L5.79271 17.0278C5.87078 16.9739 5.96163 16.9465 6.05247 16.9465ZM11.1075 21H9.89228C9.23032 21 8.66378 20.527 8.54463 19.8756L8.36887 18.9064C7.56037 18.7019 6.78839 18.3809 6.06617 17.9486L5.2531 18.512C4.72126 18.879 3.96115 18.8101 3.50508 18.354L2.64591 17.4948C2.17752 17.0269 2.11132 16.2914 2.48795 15.7468L3.05084 14.9342C2.61897 14.2115 2.29804 13.4391 2.09397 12.631L1.12478 12.4553C0.472865 12.3366 -9.15527e-05 11.77 -9.15527e-05 11.1076V9.89237C-9.15527e-05 9.22996 0.472865 8.66296 1.12478 8.54517L2.09397 8.36896C2.29804 7.56046 2.61897 6.78848 3.05084 6.0658L2.48795 5.2532C2.11132 4.70811 2.17752 3.97311 2.64591 3.50517L3.50508 2.646C3.96115 2.18993 4.72171 2.12054 5.2531 2.48804L6.06617 3.05139C6.78839 2.61907 7.56082 2.29813 8.36887 2.09361L8.54463 1.12487C8.66378 0.472957 9.23032 0 9.89228 0H11.1075C11.7695 0 12.3365 0.472956 12.4552 1.12441L12.6314 2.09361C13.4395 2.29813 14.2114 2.61907 14.9341 3.05139L15.7467 2.48804C16.2786 2.12054 17.0391 2.18993 17.4947 2.646L18.3544 3.50517C18.8228 3.97311 18.889 4.70811 18.5119 5.2532L17.949 6.0658C18.3808 6.78848 18.7018 7.56046 18.9063 8.36896L19.8755 8.54472C20.527 8.66296 20.9999 9.22996 20.9999 9.89237V11.1076C20.9999 11.77 20.527 12.3366 19.8755 12.4548L18.9063 12.631C18.7018 13.4391 18.3808 14.2115 17.949 14.9342L18.5119 15.7468C18.889 16.2914 18.8228 17.0269 18.3544 17.4948L17.4947 18.354C17.2363 18.6124 16.8921 18.7553 16.526 18.7553C16.2466 18.7553 15.9773 18.6708 15.7472 18.512L14.9341 17.9486C14.2119 18.3809 13.4395 18.7019 12.6314 18.9064L12.4552 19.8751C12.3365 20.527 11.7695 21 11.1075 21Z" fill="#007AFF"/>
<path fill-rule="evenodd" clip-rule="evenodd" d="M10.5 7.30416C8.73783 7.30416 7.30435 8.73809 7.30435 10.4998C7.30435 12.2615 8.73783 13.6955 10.5 13.6955C12.2622 13.6955 13.6957 12.2615 13.6957 10.4998C13.6957 8.73809 12.2622 7.30416 10.5 7.30416ZM10.5 14.6085C8.23474 14.6085 6.3913 12.7655 6.3913 10.4998C6.3913 8.23409 8.23474 6.39111 10.5 6.39111C12.7653 6.39111 14.6087 8.23409 14.6087 10.4998C14.6087 12.7655 12.7653 14.6085 10.5 14.6085Z" fill="#007AFF"/>
</svg>
