<svg version="1.1" xmlns="http://www.w3.org/2000/svg" xmlns:xlink="http://www.w3.org/1999/xlink">
    
    <symbol id="logo" viewBox="0 0 85 22">
        <path d="M8.97 21.33C6.99 21.33 5.5 20.84 4.5 19.86C3.5 18.86 3 17.37 3 15.39V9.18H0.12V5.79H3V2.07L7.53 0.959999V5.79H11.43V9.18H7.53V15.15C7.53 16.11 7.73 16.77 8.13 17.13C8.53 17.49 9.04 17.67 9.66 17.67C10.04 17.67 10.35 17.65 10.59 17.61C10.85 17.55 11.12 17.47 11.4 17.37V20.88C11.02 21.04 10.62 21.15 10.2 21.21C9.78 21.29 9.37 21.33 8.97 21.33ZM21.258 21.33C18.618 21.33 16.558 20.62 15.078 19.2C13.598 17.78 12.858 15.85 12.858 13.41C12.858 11.83 13.168 10.45 13.788 9.27C14.428 8.09 15.308 7.17 16.428 6.51C17.568 5.83 18.898 5.49 20.418 5.49C21.918 5.49 23.168 5.81 24.168 6.45C25.188 7.09 25.948 7.99 26.448 9.15C26.968 10.29 27.228 11.62 27.228 13.14V14.19H16.578V11.94H23.928L23.418 12.36C23.418 11.1 23.158 10.15 22.638 9.51C22.138 8.85 21.408 8.52 20.448 8.52C19.388 8.52 18.568 8.91 17.988 9.69C17.428 10.47 17.148 11.59 17.148 13.05V13.53C17.148 15.01 17.508 16.11 18.228 16.83C18.968 17.55 20.028 17.91 21.408 17.91C22.228 17.91 22.998 17.81 23.718 17.61C24.458 17.39 25.158 17.05 25.818 16.59L27.078 19.59C26.318 20.15 25.438 20.58 24.438 20.88C23.458 21.18 22.398 21.33 21.258 21.33ZM36.0122 21.33C34.6922 21.33 33.5322 21.01 32.5322 20.37C31.5322 19.73 30.7522 18.82 30.1922 17.64C29.6322 16.46 29.3522 15.04 29.3522 13.38C29.3522 11.74 29.6322 10.33 30.1922 9.15C30.7522 7.97 31.5322 7.07 32.5322 6.45C33.5322 5.81 34.6922 5.49 36.0122 5.49C37.2322 5.49 38.3222 5.79 39.2822 6.39C40.2622 6.97 40.9022 7.76 41.2022 8.76H40.8722L41.2322 5.79H45.5822C45.5222 6.45 45.4622 7.12 45.4022 7.8C45.3622 8.46 45.3422 9.11 45.3422 9.75V21H40.8422L40.8122 18.15H41.1722C40.8522 19.11 40.2122 19.88 39.2522 20.46C38.2922 21.04 37.2122 21.33 36.0122 21.33ZM37.3922 17.91C38.4322 17.91 39.2722 17.54 39.9122 16.8C40.5522 16.06 40.8722 14.92 40.8722 13.38C40.8722 11.84 40.5522 10.71 39.9122 9.99C39.2722 9.27 38.4322 8.91 37.3922 8.91C36.3522 8.91 35.5122 9.27 34.8722 9.99C34.2322 10.71 33.9122 11.84 33.9122 13.38C33.9122 14.92 34.2222 16.06 34.8422 16.8C35.4822 17.54 36.3322 17.91 37.3922 17.91ZM49.0573 21V9.75C49.0573 9.11 49.0373 8.46 48.9973 7.8C48.9573 7.12 48.8973 6.45 48.8173 5.79H53.1673L53.4973 8.61H53.1373C53.5773 7.65 54.2273 6.89 55.0873 6.33C55.9473 5.77 56.9673 5.49 58.1473 5.49C59.3073 5.49 60.2773 5.77 61.0573 6.33C61.8573 6.87 62.4273 7.72 62.7673 8.88H62.2873C62.7273 7.84 63.4273 7.02 64.3873 6.42C65.3473 5.8 66.4373 5.49 67.6573 5.49C69.3773 5.49 70.6573 6 71.4973 7.02C72.3373 8.04 72.7573 9.64 72.7573 11.82V21H68.2273V11.97C68.2273 10.91 68.0573 10.15 67.7173 9.69C67.3773 9.23 66.8273 9 66.0673 9C65.1673 9 64.4573 9.32 63.9373 9.96C63.4173 10.6 63.1573 11.48 63.1573 12.6V21H58.6273V11.97C58.6273 10.91 58.4573 10.15 58.1173 9.69C57.7773 9.23 57.2273 9 56.4673 9C55.5673 9 54.8573 9.32 54.3373 9.96C53.8373 10.6 53.5873 11.48 53.5873 12.6V21H49.0573Z" fill="white"/>
        <path d="M76.8833 21V13.32H84.6593V21H76.8833Z" fill="#0BBEF2"/>
    </symbol>

    <symbol id="arrow" viewBox="0 0 24 24">
        <path d="M8.9 19.15C8.27 19.15 7.68 19 7.16 18.7C5.93 17.99 5.25 16.56 5.25 14.68V9.32998C5.25 7.44998 5.93 6.01998 7.16 5.30998C8.39 4.59998 9.96 4.72998 11.6 5.66998L16.23 8.33998C17.86 9.27998 18.76 10.58 18.76 12C18.76 13.42 17.86 14.72 16.23 15.66L11.6 18.33C10.66 18.88 9.74 19.15 8.9 19.15ZM8.9 6.35998C8.53 6.35998 8.19 6.43998 7.9 6.60998C7.16 7.03998 6.75 7.99998 6.75 9.32998V14.67C6.75 15.99 7.16 16.96 7.91 17.39C8.66 17.82 9.7 17.69 10.85 17.03L15.48 14.36C16.63 13.7 17.26 12.86 17.26 12C17.26 11.14 16.63 10.3 15.48 9.63999L10.85 6.96998C10.14 6.55998 9.48 6.35998 8.9 6.35998Z" fill="#292D32"/>
    </symbol>

    <symbol id="calendar" viewBox="0 0 26 24">
        <path fill-rule="evenodd" clip-rule="evenodd" d="M23.218 23.729H2.78087C1.222 23.729 0 22.2763 0 20.4224V5.43061C0 3.5767 0.70087 2.25748 2.26087 2.25748H9.04348V1.12704C9.04348 0.51887 9.41313 0 10.0281 0C10.6442 0 11.1427 0.494 11.1427 1.10217L11.3043 2.25748H14.6957L14.8573 1.10217C14.8573 0.494 15.3558 0 15.9708 0C16.5869 0 17.0854 0.494 17.0854 1.10217L16.9565 2.25748H23.7391C25.2991 2.25748 26 3.5767 26 5.43061V20.4224C26 22.2763 24.778 23.729 23.218 23.729ZM23.218 4.32843H17.0854V4.77609C17.0854 5.38426 16.441 5.64878 15.8261 5.64878C15.21 5.64878 14.8573 5.38426 14.8573 4.77609V4.32843H11.1427V4.77609C11.1427 5.38426 10.7889 5.64878 10.1739 5.64878C9.55783 5.64878 8.91461 5.38426 8.91461 4.77609V4.32843L2.26087 4.51835C2.06643 4.51835 2.22809 4.7467 2.22809 5.43061L2.26087 7.90965H23.7391L23.7719 5.43061C23.7719 4.7467 23.4136 4.32843 23.218 4.32843ZM23.7719 20.4224L23.7391 10.1705H2.26087L2.22809 20.4224C2.22809 21.1063 2.06643 21.4749 2.26087 21.4749H23.7391C23.9336 21.4749 23.7719 21.1063 23.7719 20.4224ZM9.04348 18.0836H5.65217C5.65217 17.8518 5.65217 14.6923 5.65217 14.6923C5.65217 14.2864 5.53235 13.5946 5.9427 13.5946H9.40974C9.82009 13.5946 10.1524 13.9224 10.1524 14.3294V17.7569C10.1524 18.1627 9.45383 18.0836 9.04348 18.0836ZM5.65217 18.0836C5.24183 18.0836 5.65217 17.7557 5.65217 18.0836V18.0836Z" fill="white"/> 
    </symbol>   

    <symbol id="notification" viewBox="0 0 40 46">
        <path fill-rule="evenodd" clip-rule="evenodd" d="M38.095 33.6136L35.8013 31.32C35.5941 31.1147 35.6217 30.1653 35.6217 29.8731V20.0038C35.6217 13.3222 31.0502 7.45979 24.7496 5.35959V5.17602C24.7496 2.51918 22.5013 0.265015 19.8307 0.265015C17.1679 0.265015 14.9098 2.51918 14.9098 5.17602V5.35959C8.60921 7.45979 4.03969 13.3222 4.03969 20.0038V29.8731C4.03969 30.1653 4.06535 31.1147 3.86007 31.32L1.56642 33.6136C0.855829 34.3242 0.0899658 35.6428 0.0899658 36.8626C0.0899658 38.4023 1.4855 39.6557 3.20079 39.6557H11.8385C12.6497 43.0882 15.7487 45.6523 19.4359 45.6523C23.1231 45.6523 26.913 43.1751 27.7262 39.7425L36.4606 39.6557C38.1759 39.6557 39.5694 38.4023 39.5694 36.8626C39.5694 35.6467 38.8056 34.3262 38.095 33.6136ZM19.4359 42.1822C17.689 42.1822 16.181 41.144 15.498 39.6557H23.3718C22.6889 41.144 21.1808 42.1822 19.4359 42.1822ZM25.7523 35.7948C25.4799 35.7276 26.0247 35.7276 25.7523 35.7948H13.9091C13.6367 35.7276 14.1815 35.7276 13.9091 35.7948H4.0397C4.12655 35.4552 4.00219 35.8303 4.0397 35.7948L6.32347 33.7696C7.17816 32.9168 7.98745 31.0811 7.98745 29.8731V20.0037C7.98745 14.3822 11.5187 9.67643 17.0554 8.35196C17.8371 8.16444 18.3878 7.46767 18.3878 6.6643V5.176C18.3878 4.45356 19.1063 4.21275 19.8307 4.21275C20.5748 4.21275 21.2697 4.43974 21.2697 5.176V6.6643C21.2697 7.46767 21.8223 8.16444 22.604 8.35196C28.1407 9.67643 31.674 14.3822 31.674 20.0037V29.8731C31.674 31.0811 32.4832 32.9168 33.3379 33.7715L35.6296 36.0612C35.6671 36.0987 35.5862 35.7494 35.6217 35.7948H25.7523Z" fill="white"/>
    </symbol>   


    <symbol id="arrow_24px" viewBox="0 0 24 24">
        <path d="M16.1187 11.004H5.10875C4.55875 11.004 4.10875 11.454 4.10875 12.004C4.10875 12.554 4.55875 13.004 5.10875 13.004H16.1187V14.794C16.1187 15.244 16.6587 15.464 16.9687 15.144L19.7487 12.354C19.9387 12.154 19.9387 11.844 19.7487 11.644L16.9687 8.85398C16.6587 8.53398 16.1187 8.76398 16.1187 9.20398V11.004Z" fill="#4DA0FD"/>
    </symbol>    

    <symbol id="search" viewBox="0 0 21 23">
        <mask id="path-1-inside-1_1_603" fill="white">
            <path fill-rule="evenodd" clip-rule="evenodd" d="M19.9898 20.2812L15.7933 15.9023C16.9739 14.3355 17.6842 12.3641 17.6842 10.2217C17.6842 5.13476 13.7178 0.996094 8.84268 0.996094C3.96646 0.996094 0 5.13476 0 10.2217C0 15.3075 3.96646 19.4462 8.84268 19.4462C10.7528 19.4462 12.5191 18.8027 13.967 17.7241L18.2031 22.1449C18.4501 22.4021 18.773 22.5301 19.097 22.5301C19.4199 22.5301 19.7428 22.4021 19.9898 22.1449C20.4826 21.6305 20.4826 20.7967 19.9898 20.2812ZM2.52535 10.2217C2.52535 6.58834 5.35999 3.63247 8.84268 3.63247C12.3254 3.63247 15.1578 6.58834 15.1578 10.2217C15.1578 13.8551 12.3254 16.8098 8.84268 16.8098C5.35999 16.8098 2.52535 13.8551 2.52535 10.2217Z"/>
            </mask>
            <path fill-rule="evenodd" clip-rule="evenodd" d="M19.9898 20.2812L15.7933 15.9023C16.9739 14.3355 17.6842 12.3641 17.6842 10.2217C17.6842 5.13476 13.7178 0.996094 8.84268 0.996094C3.96646 0.996094 0 5.13476 0 10.2217C0 15.3075 3.96646 19.4462 8.84268 19.4462C10.7528 19.4462 12.5191 18.8027 13.967 17.7241L18.2031 22.1449C18.4501 22.4021 18.773 22.5301 19.097 22.5301C19.4199 22.5301 19.7428 22.4021 19.9898 22.1449C20.4826 21.6305 20.4826 20.7967 19.9898 20.2812ZM2.52535 10.2217C2.52535 6.58834 5.35999 3.63247 8.84268 3.63247C12.3254 3.63247 15.1578 6.58834 15.1578 10.2217C15.1578 13.8551 12.3254 16.8098 8.84268 16.8098C5.35999 16.8098 2.52535 13.8551 2.52535 10.2217Z" fill="#989898" fill-opacity="0.61"/>
            <path d="M15.7933 15.9023L15.3141 15.5413L15.007 15.9489L15.3601 16.3175L15.7933 15.9023ZM13.967 17.7241L14.4002 17.309L14.0336 16.9264L13.6086 17.2429L13.967 17.7241ZM18.2031 22.1449L17.7699 22.56L17.7704 22.5605L18.2031 22.1449ZM19.9898 22.1449L20.4225 22.5605L20.423 22.56L19.9898 22.1449ZM20.423 19.866L16.2265 15.4872L15.3601 16.3175L19.5566 20.6963L20.423 19.866ZM16.2725 16.2634C17.529 14.5957 18.2842 12.4985 18.2842 10.2217H17.0842C17.0842 12.2298 16.4187 14.0752 15.3141 15.5413L16.2725 16.2634ZM18.2842 10.2217C18.2842 4.82769 14.0729 0.396094 8.84268 0.396094V1.59609C13.3626 1.59609 17.0842 5.44184 17.0842 10.2217H18.2842ZM8.84268 0.396094C3.61135 0.396094 -0.6 4.82764 -0.6 10.2217H0.6C0.6 5.44189 4.32157 1.59609 8.84268 1.59609V0.396094ZM-0.6 10.2217C-0.6 15.6147 3.6114 20.0462 8.84268 20.0462V18.8462C4.32152 18.8462 0.6 15.0004 0.6 10.2217H-0.6ZM8.84268 20.0462C10.8908 20.0462 12.7812 19.3556 14.3255 18.2053L13.6086 17.2429C12.257 18.2498 10.6149 18.8462 8.84268 18.8462V20.0462ZM13.5338 18.1392L17.7699 22.56L18.6363 21.7298L14.4002 17.309L13.5338 18.1392ZM17.7704 22.5605C18.1327 22.9378 18.6129 23.1301 19.097 23.1301V21.9301C18.9331 21.9301 18.7675 21.8664 18.6359 21.7293L17.7704 22.5605ZM19.097 23.1301C19.5803 23.1301 20.0604 22.9376 20.4225 22.5605L19.557 21.7293C19.4252 21.8666 19.2595 21.9301 19.097 21.9301V23.1301ZM20.423 22.56C21.1385 21.8133 21.1378 20.6137 20.4235 19.8666L19.5561 20.6958C19.8274 20.9796 19.8268 21.4478 19.5566 21.7298L20.423 22.56ZM3.12535 10.2217C3.12535 6.89568 5.71489 4.23247 8.84268 4.23247V3.03247C5.00509 3.03247 1.92535 6.281 1.92535 10.2217H3.12535ZM8.84268 4.23247C11.9702 4.23247 14.5577 6.89539 14.5577 10.2217H15.7577C15.7577 6.28129 12.6806 3.03247 8.84268 3.03247V4.23247ZM14.5577 10.2217C14.5577 13.5479 11.9703 16.2098 8.84268 16.2098V17.4098C12.6804 17.4098 15.7577 14.1623 15.7577 10.2217H14.5577ZM8.84268 16.2098C5.71476 16.2098 3.12535 13.5476 3.12535 10.2217H1.92535C1.92535 14.1626 5.00522 17.4098 8.84268 17.4098V16.2098Z" fill="white" mask="url(#path-1-inside-1_1_603)"/>            
    </symbol>

    <symbol id="telegram" viewBox="0 0 11 11">
        <g opacity="0.74">
            <path fill-rule="evenodd" clip-rule="evenodd" d="M1.69466 5.01748L9.07661 8.16041L9.9135 1.14919L1.69466 5.01748ZM9.25092 8.64839C9.22187 8.64839 9.19302 8.64247 9.16605 8.63121L1.12276 5.20667C1.04951 5.17546 1.00157 5.10654 0.999912 5.03012C0.998459 4.95369 1.04349 4.88319 1.1155 4.84922L10.0708 0.634746C10.1386 0.602754 10.2198 0.608481 10.282 0.65015C10.3443 0.691621 10.3775 0.762123 10.369 0.834006L9.45698 8.47323C9.44951 8.53563 9.41112 8.59132 9.35364 8.62233C9.32189 8.63971 9.2864 8.64839 9.25092 8.64839Z" fill="#4DA1FF"/>
            <path d="M1.69466 5.01748L1.63078 4.88176L1.32785 5.02434L1.6359 5.15549L1.69466 5.01748ZM9.07661 8.16041L9.01785 8.29843L9.20185 8.37677L9.22555 8.17819L9.07661 8.16041ZM9.9135 1.14919L10.0624 1.16697L10.0945 0.898204L9.84962 1.01347L9.9135 1.14919ZM9.16605 8.63121L9.10729 8.76923L9.10828 8.76964L9.16605 8.63121ZM1.12276 5.20667L1.06397 5.34467L1.064 5.34468L1.12276 5.20667ZM0.999912 5.03012L0.849939 5.03297L0.849947 5.03337L0.999912 5.03012ZM1.1155 4.84922L1.05162 4.7135L1.0515 4.71356L1.1155 4.84922ZM10.0708 0.634746L10.1347 0.770468L10.1348 0.770423L10.0708 0.634746ZM10.282 0.65015L10.1986 0.774804L10.1989 0.774986L10.282 0.65015ZM10.369 0.834006L10.5179 0.851788L10.5179 0.851637L10.369 0.834006ZM9.45698 8.47323L9.60591 8.49106L9.60592 8.49101L9.45698 8.47323ZM9.35364 8.62233L9.28243 8.49031L9.28162 8.49075L9.35364 8.62233ZM1.6359 5.15549L9.01785 8.29843L9.13537 8.0224L1.75341 4.87947L1.6359 5.15549ZM9.22555 8.17819L10.0624 1.16697L9.76456 1.13141L8.92767 8.14264L9.22555 8.17819ZM9.84962 1.01347L1.63078 4.88176L1.75853 5.1532L9.97738 1.28491L9.84962 1.01347ZM9.25092 8.49839C9.24227 8.49839 9.23302 8.49662 9.22381 8.49278L9.10828 8.76964C9.15303 8.78832 9.20147 8.79839 9.25092 8.79839V8.49839ZM9.22481 8.4932L1.18152 5.06866L1.064 5.34468L9.10729 8.76923L9.22481 8.4932ZM1.18154 5.06867C1.15966 5.05934 1.15019 5.04131 1.14988 5.02686L0.849947 5.03337C0.852954 5.17178 0.939357 5.29159 1.06397 5.34467L1.18154 5.06867ZM1.14988 5.02727C1.14961 5.01298 1.15809 4.99498 1.17949 4.98489L1.0515 4.71356C0.928887 4.7714 0.847305 4.8944 0.849939 5.03297L1.14988 5.02727ZM1.17937 4.98495L10.1347 0.770468L10.0069 0.499025L1.05162 4.7135L1.17937 4.98495ZM10.1348 0.770423C10.1555 0.760656 10.1806 0.762763 10.1986 0.774803L10.3655 0.525497C10.259 0.4542 10.1218 0.444853 10.0068 0.49907L10.1348 0.770423ZM10.1989 0.774986C10.2158 0.786274 10.2217 0.802578 10.22 0.816376L10.5179 0.851637C10.5333 0.721668 10.4728 0.596969 10.3652 0.525314L10.1989 0.774986ZM10.22 0.816225L9.30803 8.45545L9.60592 8.49101L10.5179 0.851788L10.22 0.816225ZM9.30804 8.4554C9.30657 8.46765 9.29852 8.48163 9.28243 8.49031L9.42485 8.75435C9.52372 8.70102 9.59244 8.60362 9.60591 8.49106L9.30804 8.4554ZM9.28162 8.49075C9.27267 8.49564 9.26207 8.49839 9.25092 8.49839V8.79839C9.31074 8.79839 9.37111 8.78377 9.42566 8.75391L9.28162 8.49075Z" fill="#4DA1FF"/>
            <path fill-rule="evenodd" clip-rule="evenodd" d="M4.90148 9.88174C4.8826 9.88174 4.86351 9.87917 4.84463 9.87424C4.75477 9.84975 4.69335 9.77135 4.69397 9.68268L4.71991 6.52295C4.72033 6.47576 4.73859 6.43034 4.77117 6.39479L10.0033 0.682405C10.0789 0.600253 10.21 0.591761 10.2963 0.66325C10.3827 0.735133 10.3916 0.859745 10.3162 0.941898L5.13452 6.59918L5.1148 8.97233L6.25818 7.18887C6.31815 7.09565 6.44577 7.06623 6.54351 7.1231C6.64125 7.17978 6.67217 7.30163 6.6124 7.39445L5.0787 9.78714C5.04031 9.84698 4.97245 9.88174 4.90148 9.88174Z" fill="#4DA1FF"/>
            <path d="M4.90148 9.88174C4.8826 9.88174 4.86351 9.87917 4.84463 9.87424C4.75477 9.84975 4.69335 9.77135 4.69397 9.68268L4.71991 6.52295C4.72033 6.47576 4.73859 6.43034 4.77117 6.39479L10.0033 0.682405C10.0789 0.600253 10.21 0.591761 10.2963 0.66325C10.3827 0.735133 10.3916 0.859745 10.3162 0.941898L5.13452 6.59918L5.1148 8.97233L6.25818 7.18887C6.31815 7.09565 6.44577 7.06623 6.54351 7.1231C6.64125 7.17978 6.67217 7.30163 6.6124 7.39445L5.0787 9.78714C5.04031 9.84698 4.97245 9.88174 4.90148 9.88174" stroke="#4DA1FF" stroke-width="0.3"/>
            </g>   
    </symbol>

    <symbol id="logo_black" viewBox="0 0 87 60">
        <path d="M8.97 48.33C6.99 48.33 5.5 47.84 4.5 46.86C3.5 45.86 3 44.37 3 42.39V36.18H0.12V32.79H3V29.07L7.53 27.96V32.79H11.43V36.18H7.53V42.15C7.53 43.11 7.73 43.77 8.13 44.13C8.53 44.49 9.04 44.67 9.66 44.67C10.04 44.67 10.35 44.65 10.59 44.61C10.85 44.55 11.12 44.47 11.4 44.37V47.88C11.02 48.04 10.62 48.15 10.2 48.21C9.78 48.29 9.37 48.33 8.97 48.33ZM21.258 48.33C18.618 48.33 16.558 47.62 15.078 46.2C13.598 44.78 12.858 42.85 12.858 40.41C12.858 38.83 13.168 37.45 13.788 36.27C14.428 35.09 15.308 34.17 16.428 33.51C17.568 32.83 18.898 32.49 20.418 32.49C21.918 32.49 23.168 32.81 24.168 33.45C25.188 34.09 25.948 34.99 26.448 36.15C26.968 37.29 27.228 38.62 27.228 40.14V41.19H16.578V38.94H23.928L23.418 39.36C23.418 38.1 23.158 37.15 22.638 36.51C22.138 35.85 21.408 35.52 20.448 35.52C19.388 35.52 18.568 35.91 17.988 36.69C17.428 37.47 17.148 38.59 17.148 40.05V40.53C17.148 42.01 17.508 43.11 18.228 43.83C18.968 44.55 20.028 44.91 21.408 44.91C22.228 44.91 22.998 44.81 23.718 44.61C24.458 44.39 25.158 44.05 25.818 43.59L27.078 46.59C26.318 47.15 25.438 47.58 24.438 47.88C23.458 48.18 22.398 48.33 21.258 48.33ZM36.0122 48.33C34.6922 48.33 33.5322 48.01 32.5322 47.37C31.5322 46.73 30.7522 45.82 30.1922 44.64C29.6322 43.46 29.3522 42.04 29.3522 40.38C29.3522 38.74 29.6322 37.33 30.1922 36.15C30.7522 34.97 31.5322 34.07 32.5322 33.45C33.5322 32.81 34.6922 32.49 36.0122 32.49C37.2322 32.49 38.3222 32.79 39.2822 33.39C40.2622 33.97 40.9022 34.76 41.2022 35.76H40.8722L41.2322 32.79H45.5822C45.5222 33.45 45.4622 34.12 45.4022 34.8C45.3622 35.46 45.3422 36.11 45.3422 36.75V48H40.8422L40.8122 45.15H41.1722C40.8522 46.11 40.2122 46.88 39.2522 47.46C38.2922 48.04 37.2122 48.33 36.0122 48.33ZM37.3922 44.91C38.4322 44.91 39.2722 44.54 39.9122 43.8C40.5522 43.06 40.8722 41.92 40.8722 40.38C40.8722 38.84 40.5522 37.71 39.9122 36.99C39.2722 36.27 38.4322 35.91 37.3922 35.91C36.3522 35.91 35.5122 36.27 34.8722 36.99C34.2322 37.71 33.9122 38.84 33.9122 40.38C33.9122 41.92 34.2222 43.06 34.8422 43.8C35.4822 44.54 36.3322 44.91 37.3922 44.91ZM49.0573 48V36.75C49.0573 36.11 49.0373 35.46 48.9973 34.8C48.9573 34.12 48.8973 33.45 48.8173 32.79H53.1673L53.4973 35.61H53.1373C53.5773 34.65 54.2273 33.89 55.0873 33.33C55.9473 32.77 56.9673 32.49 58.1473 32.49C59.3073 32.49 60.2773 32.77 61.0573 33.33C61.8573 33.87 62.4273 34.72 62.7673 35.88H62.2873C62.7273 34.84 63.4273 34.02 64.3873 33.42C65.3473 32.8 66.4373 32.49 67.6573 32.49C69.3773 32.49 70.6573 33 71.4973 34.02C72.3373 35.04 72.7573 36.64 72.7573 38.82V48H68.2273V38.97C68.2273 37.91 68.0573 37.15 67.7173 36.69C67.3773 36.23 66.8273 36 66.0673 36C65.1673 36 64.4573 36.32 63.9373 36.96C63.4173 37.6 63.1573 38.48 63.1573 39.6V48H58.6273V38.97C58.6273 37.91 58.4573 37.15 58.1173 36.69C57.7773 36.23 57.2273 36 56.4673 36C55.5673 36 54.8573 36.32 54.3373 36.96C53.8373 37.6 53.5873 38.48 53.5873 39.6V48H49.0573Z" fill="#323030"/>
        <path d="M76.8833 48V40.32H84.6593V48H76.8833Z" fill="#0BBEF2"/>
    </symbol>    

    <symbol id="conversation" viewBox="0 0 23 22">
        <path fill-rule="evenodd" clip-rule="evenodd" d="M14.0873 21.8274C11.6542 21.8274 9.33488 20.6531 7.88095 18.6704L8.63149 18.1068C9.92906 19.8753 11.917 20.8857 14.0869 20.8857H14.1013C15.159 20.8857 16.1723 20.6494 17.1128 20.1748C17.2865 20.0877 17.4965 20.1211 17.6384 20.2543C18.3815 20.9469 20.2083 20.8857 21.4214 20.7266C19.9007 18.7834 20.2284 17.0418 20.2447 16.9603C20.2517 16.9259 20.2625 16.893 20.2769 16.8605C20.683 15.9574 20.8874 14.9926 20.8851 13.9921C20.8814 12.0663 20.114 10.2818 18.7255 8.96675L19.3644 8.27979C20.9197 9.75259 21.8144 11.8342 21.8186 13.9907C21.8209 15.1056 21.5974 16.1825 21.153 17.192C21.1152 17.474 20.9939 19.0424 22.663 20.7186C22.7843 20.8405 22.8291 21.0195 22.7811 21.1857C22.7325 21.3509 22.5981 21.4766 22.4305 21.5129C22.0511 21.5944 18.8463 22.2309 17.2617 21.1471C16.2675 21.6014 15.2061 21.8274 14.1032 21.8274H14.0873Z" fill="#007AFF"/>
        <path fill-rule="evenodd" clip-rule="evenodd" d="M6.1298 15.5246C6.20027 15.5246 6.27169 15.5406 6.3375 15.5736C7.33075 16.0722 8.40007 16.325 9.51561 16.325C13.4685 16.325 16.6844 13.063 16.6844 9.05376C16.6844 5.04404 13.4685 1.78202 9.51561 1.78202C5.56269 1.78202 2.34678 5.04404 2.34678 9.05376C2.34678 10.1099 2.56428 11.1269 2.99416 12.078C3.00863 12.11 3.01936 12.1435 3.02683 12.1783C3.0441 12.263 3.3937 14.1012 1.77874 16.1503C2.21749 16.2083 2.78832 16.2629 3.37596 16.2629C4.54237 16.2629 5.38439 16.0515 5.81194 15.6508C5.90062 15.5679 6.01451 15.5246 6.1298 15.5246ZM9.51561 17.2667C8.35526 17.2667 7.23833 17.0247 6.19234 16.5468C5.56503 16.9837 4.62032 17.2046 3.37643 17.2046H3.37596C2.03545 17.2046 0.817698 16.9494 0.766822 16.9385C0.598791 16.9032 0.4639 16.7775 0.415358 16.6122C0.366349 16.446 0.411624 16.2671 0.53298 16.1447C2.2931 14.3691 2.16054 12.7108 2.119 12.4109C1.65038 11.3534 1.41327 10.2238 1.41327 9.05376C1.41327 4.52517 5.04786 0.840332 9.51561 0.840332C13.9834 0.840332 17.6179 4.52517 17.6179 9.05376C17.6179 13.5824 13.9834 17.2667 9.51561 17.2667Z" fill="#007AFF"/>
    </symbol> 
    
    <symbol id="dashboard" viewBox="0 0 23 18">
        <path fill-rule="evenodd" clip-rule="evenodd" d="M1.96856 4.66597L11.4833 8.27254L20.9975 4.66597L11.4833 1.0594L1.96856 4.66597ZM11.4833 9.33207C11.4191 9.33207 11.3549 9.32082 11.2944 9.29781L0.333268 5.14306C0.132315 5.06636 0.000259399 4.87716 0.000259399 4.66597C0.000259399 4.45478 0.132315 4.26558 0.333268 4.18888L11.2944 0.0341328C11.416 -0.0113776 11.5501 -0.0113776 11.6717 0.0341328L22.6328 4.18888C22.8338 4.26558 22.9664 4.45478 22.9664 4.66597C22.9664 4.87716 22.8338 5.06636 22.6328 5.14306L11.6717 9.29781C11.6112 9.32082 11.547 9.33207 11.4833 9.33207Z" fill="#007AFF"/>
        <path fill-rule="evenodd" clip-rule="evenodd" d="M11.4831 13.8064C11.4194 13.8064 11.3552 13.7951 11.2946 13.7721L0.333531 9.61739C0.132577 9.54069 0 9.35149 0 9.1403C0 8.92911 0.132577 8.73991 0.333531 8.66321L5.81408 6.58609C6.08289 6.48433 6.3851 6.61473 6.48949 6.87807C6.59336 7.14193 6.45974 7.43801 6.19093 7.53977L1.9683 9.1403L11.4831 12.7469L20.9978 9.1403L16.7752 7.53977C16.5064 7.43801 16.3727 7.14193 16.4766 6.87807C16.581 6.61524 16.8822 6.48484 17.152 6.58609L22.6326 8.66321C22.8335 8.73991 22.9661 8.92911 22.9661 9.1403C22.9661 9.35149 22.8335 9.54069 22.6326 9.61739L11.6715 13.7721C11.6109 13.7951 11.5467 13.8064 11.4831 13.8064Z" fill="#007AFF"/>
        <path fill-rule="evenodd" clip-rule="evenodd" d="M11.4831 17.8973C11.4194 17.8973 11.3552 17.886 11.2946 17.863L0.333531 13.7083C0.132577 13.6316 0 13.4423 0 13.2312C0 13.02 0.132577 12.8308 0.333531 12.7541L5.5531 10.7726C5.82243 10.6703 6.12412 10.8012 6.22851 11.0651C6.33238 11.3279 6.19876 11.624 5.92995 11.7268L1.96778 13.2306L11.4831 16.8377L20.9983 13.2306L17.0362 11.7268C16.7673 11.624 16.6337 11.3279 16.7376 11.0651C16.842 10.8012 17.1442 10.6708 17.413 10.7726L22.6326 12.7541C22.8335 12.8308 22.9661 13.02 22.9661 13.2312C22.9661 13.4423 22.8335 13.6316 22.6326 13.7083L11.6715 17.863C11.6109 17.886 11.5467 17.8973 11.4831 17.8973Z" fill="#007AFF"/>
    </symbol>  
    
    <symbol id="fileboard" viewBox="0 0 18 22">
        <path fill-rule="evenodd" clip-rule="evenodd" d="M1.40283 0.949853C1.14518 0.949853 0.935223 1.16309 0.935223 1.42478V20.4218C0.935223 20.6835 1.14518 20.8968 1.40283 20.8968H16.3664C16.6241 20.8968 16.834 20.6835 16.834 20.4218V6.37066L11.4967 0.949853H1.40283ZM16.3664 21.8466H1.40283C0.629405 21.8466 0 21.2074 0 20.4218V1.42478C0 0.639251 0.629405 0 1.40283 0H11.6903C11.8142 0 11.9334 0.0498673 12.0209 0.139153L17.6322 5.83827C17.7201 5.92708 17.7692 6.04819 17.7692 6.17404V20.4218C17.7692 21.2074 17.1398 21.8466 16.3664 21.8466Z" fill="#007AFF"/>
        <path fill-rule="evenodd" clip-rule="evenodd" d="M17.3016 6.64882H11.6903C11.4322 6.64882 11.2227 6.43606 11.2227 6.1739V0.949707H12.1579V5.69897H17.3016V6.64882Z" fill="#007AFF"/>
        <path fill-rule="evenodd" clip-rule="evenodd" d="M8.88462 8.07388H3.27328C3.01516 8.07388 2.80567 7.86111 2.80567 7.59895C2.80567 7.33679 3.01516 7.12402 3.27328 7.12402H8.88462C9.14274 7.12402 9.35223 7.33679 9.35223 7.59895C9.35223 7.86111 9.14274 8.07388 8.88462 8.07388Z" fill="#007AFF"/>
        <path fill-rule="evenodd" clip-rule="evenodd" d="M14.496 10.9235H3.27328C3.01516 10.9235 2.80567 10.7107 2.80567 10.4486C2.80567 10.1864 3.01516 9.97363 3.27328 9.97363H14.496C14.7541 9.97363 14.9636 10.1864 14.9636 10.4486C14.9636 10.7107 14.7541 10.9235 14.496 10.9235Z" fill="#007AFF"/>
        <path fill-rule="evenodd" clip-rule="evenodd" d="M14.496 13.7731H3.27328C3.01516 13.7731 2.80567 13.5603 2.80567 13.2982C2.80567 13.036 3.01516 12.8232 3.27328 12.8232H14.496C14.7541 12.8232 14.9636 13.036 14.9636 13.2982C14.9636 13.5603 14.7541 13.7731 14.496 13.7731Z" fill="#007AFF"/>
        <path fill-rule="evenodd" clip-rule="evenodd" d="M14.496 16.6222H3.27328C3.01516 16.6222 2.80567 16.4094 2.80567 16.1473C2.80567 15.8851 3.01516 15.6724 3.27328 15.6724H14.496C14.7541 15.6724 14.9636 15.8851 14.9636 16.1473C14.9636 16.4094 14.7541 16.6222 14.496 16.6222Z" fill="#007AFF"/>
    </symbol>  
    
    <symbol id="meetings" viewBox="0 0 21 21">
        <path fill-rule="evenodd" clip-rule="evenodd" d="M5.69565 8.19264C5.71728 8.20631 5.74156 8.22086 5.76673 8.23673C5.97157 8.36372 6.11946 8.45543 6.17597 8.64899C6.39671 9.4153 7.89109 12.2632 9.91214 12.2632C11.9314 12.2632 13.4271 9.41486 13.6479 8.65031C13.7031 8.45675 13.8518 8.36416 14.0571 8.23629C14.0823 8.22086 14.1066 8.20631 14.1278 8.19264C14.669 7.20808 14.5838 6.76849 14.5202 6.62298C14.443 6.44618 14.2805 6.40297 14.2624 6.39856C14.0554 6.34918 13.9004 6.15561 13.9119 5.94309C13.9123 5.93207 13.9688 4.80465 13.6947 3.77071C13.6682 3.67459 12.9746 1.32275 9.91214 1.32275C6.82582 1.32275 6.13535 3.74822 6.12873 3.77291C5.8537 4.80994 5.91153 5.93163 5.91197 5.94265C5.92477 6.16443 5.76982 6.36064 5.55129 6.40076C5.5429 6.40297 5.38044 6.44618 5.30318 6.62298C5.24005 6.76849 5.1544 7.20808 5.69565 8.19264ZM9.91214 13.145C7.47655 13.145 5.77644 10.2217 5.37028 9.02862C5.34821 9.01451 5.32393 8.99996 5.30053 8.98541C5.1416 8.88708 5.03653 8.82183 4.96766 8.69881C4.38271 7.66575 4.2282 6.83771 4.50853 6.23939C4.6423 5.95279 4.84537 5.77951 5.02373 5.67634C5.02329 5.22925 5.05596 4.37476 5.27581 3.54496C5.28464 3.51233 6.15699 0.440918 9.91214 0.440918C13.6673 0.440918 14.5392 3.51233 14.548 3.54319C14.7683 4.37432 14.801 5.22925 14.8006 5.67634C14.9785 5.77951 15.1815 5.95279 15.3153 6.23895C15.5956 6.83771 15.4407 7.66575 14.8557 8.70013C14.7873 8.82183 14.6822 8.88664 14.5233 8.98497C14.4999 8.99996 14.4761 9.01451 14.4536 9.02862C14.0456 10.2239 12.3447 13.145 9.91214 13.145Z" fill="#007AFF"/>
        <path fill-rule="evenodd" clip-rule="evenodd" d="M13.0968 13.2837C13.0284 13.2837 12.9591 13.2678 12.8937 13.2343C11.9984 12.7701 11.7318 12.3172 11.6876 12.2313C11.5764 12.0148 11.6616 11.7489 11.8783 11.6378C12.0933 11.528 12.3529 11.6096 12.4668 11.8168C12.4805 11.8384 12.6725 12.1263 13.3007 12.4513C13.5171 12.5637 13.6014 12.8296 13.4893 13.0456C13.4107 13.1973 13.2562 13.2837 13.0968 13.2837Z" fill="#007AFF"/>
        <path fill-rule="evenodd" clip-rule="evenodd" d="M10.1423 20.7544C5.0636 20.7544 0.41181 19.9105 0.361923 19.9012C0.144719 19.8615 -0.00979567 19.6671 0.000358173 19.4466C0.210499 15.0498 2.95292 13.6843 4.99782 13.0401C6.59109 12.5379 7.42503 11.7249 7.43297 11.7165C7.60647 11.5454 7.88592 11.5463 8.05721 11.7192C8.22895 11.8924 8.22806 12.1715 8.05457 12.3431C8.01483 12.3823 7.05861 13.3153 5.26314 13.881C3.27122 14.5088 1.21264 15.6252 0.908465 19.1001C2.23067 19.3166 6.73854 19.9828 11.3197 19.8562C11.5674 19.8501 11.7669 20.0414 11.7735 20.2848C11.7801 20.5282 11.5881 20.731 11.3449 20.7376C10.9422 20.7491 10.5409 20.7544 10.1423 20.7544Z" fill="#007AFF"/>
        <path fill-rule="evenodd" clip-rule="evenodd" d="M13.981 15.0063V19.8564H19.2791L19.2787 15.0063H13.981ZM19.2787 20.7382H13.981C13.4941 20.7382 13.0981 20.3427 13.0981 19.8564V15.0063C13.0981 14.52 13.4941 14.1245 13.981 14.1245H19.2787C19.7656 14.1245 20.1616 14.52 20.1616 15.0063V19.8564C20.1616 20.3427 19.7656 20.7382 19.2787 20.7382Z" fill="#007AFF"/>
        <path fill-rule="evenodd" clip-rule="evenodd" d="M19.2787 17.2109H13.981C13.7369 17.2109 13.5395 17.0134 13.5395 16.77C13.5395 16.5266 13.7369 16.3291 13.981 16.3291H19.2787C19.5228 16.3291 19.7201 16.5266 19.7201 16.77C19.7201 17.0134 19.5228 17.2109 19.2787 17.2109Z" fill="#007AFF"/>
        <path fill-rule="evenodd" clip-rule="evenodd" d="M15.3054 15.8882C15.0613 15.8882 14.864 15.6906 14.864 15.4472V13.6836C14.864 13.4402 15.0613 13.2427 15.3054 13.2427C15.5496 13.2427 15.7469 13.4402 15.7469 13.6836V15.4472C15.7469 15.6906 15.5496 15.8882 15.3054 15.8882Z" fill="#007AFF"/>
        <path fill-rule="evenodd" clip-rule="evenodd" d="M17.9543 15.8882C17.7101 15.8882 17.5128 15.6906 17.5128 15.4472V13.6836C17.5128 13.4402 17.7101 13.2427 17.9543 13.2427C18.1984 13.2427 18.3957 13.4402 18.3957 13.6836V15.4472C18.3957 15.6906 18.1984 15.8882 17.9543 15.8882Z" fill="#007AFF"/>
    </symbol>   
    
    <symbol id="sessions" viewBox="0 0 24 22">
        <path fill-rule="evenodd" clip-rule="evenodd" d="M18.2036 19.4762C17.9663 19.4762 17.7534 19.3125 17.7039 19.0744C17.6477 18.8026 17.8254 18.5374 18.1015 18.4822C20.4118 18.0166 21.5787 16.8081 22.3495 15.925C21.8079 15.0646 20.5869 13.6682 18.8672 13.0851C16.8841 12.413 16.4584 12.1568 16.4584 10.9619C16.4584 10.7389 16.6074 10.543 16.8244 10.4802C17.148 10.3863 17.5518 10.3838 18.0194 10.3812C18.7156 10.3772 19.5818 10.3722 19.8651 10.001C20.1051 9.68557 20.0045 9.46004 19.5037 8.7051C19.3812 8.52026 19.2521 8.32436 19.1281 8.11441C18.1628 6.47694 18.0903 5.75213 18.0061 4.9128L17.9897 4.74805C17.7794 2.73839 16.6896 1.64842 14.7509 1.50828C13.0562 1.63034 12.0062 2.48473 11.63 4.04736C11.5652 4.31759 11.2896 4.48385 11.0154 4.42006C10.7413 4.35627 10.5714 4.08553 10.6367 3.8158C11.1165 1.82221 12.5657 0.645343 14.7167 0.503195C14.7392 0.50219 14.7622 0.50219 14.7851 0.503195C17.2445 0.666439 18.7432 2.13664 19.005 4.64508L19.0224 4.81436C19.1005 5.59642 19.1571 6.1615 20.0111 7.61011C20.1255 7.80449 20.2454 7.98481 20.3587 8.1561C20.836 8.87588 21.3771 9.6916 20.6814 10.6033C20.0943 11.3738 18.9474 11.3803 18.0255 11.3858C17.8637 11.3868 17.6998 11.3873 17.5518 11.3934C17.687 11.6038 18.0775 11.7555 19.1995 12.1357C21.4302 12.8912 22.9044 14.7637 23.424 15.7512C23.519 15.9326 23.4934 16.1531 23.3592 16.3078L23.2816 16.3977C22.4736 17.3329 21.1209 18.8996 18.3067 19.4657C18.272 19.4727 18.2373 19.4762 18.2036 19.4762Z" fill="#007AFF"/>
        <path fill-rule="evenodd" clip-rule="evenodd" d="M9.26296 21.7997C4.1462 21.7997 0.553641 21.0513 0.403058 21.0191C0.159062 20.9679 -0.0109184 20.7499 0.000311565 20.5043C0.197346 16.4372 2.77104 15.175 4.69034 14.5787C6.12165 14.1342 6.89396 13.4044 6.90162 13.3968C7.10273 13.203 7.42534 13.206 7.62288 13.4039C7.81941 13.6013 7.81839 13.9177 7.61829 14.1121C7.58103 14.1488 6.67906 15.0142 4.99763 15.5366C3.20493 16.0936 1.35403 17.0786 1.05235 20.119C2.15595 20.3154 5.2646 20.7951 9.26296 20.7951C13.2613 20.7951 16.37 20.3154 17.4736 20.119C17.1714 17.0786 15.321 16.0936 13.5283 15.5371C11.8464 15.0142 10.9449 14.1488 10.9071 14.1121C10.707 13.9172 10.7055 13.5988 10.9036 13.4014C11.1011 13.205 11.4237 13.2035 11.6243 13.3968C11.6452 13.4169 12.416 14.1377 13.8356 14.5792C15.7544 15.175 18.3286 16.4367 18.5256 20.5043C18.5368 20.7499 18.3669 20.9679 18.1229 21.0191C17.9723 21.0513 14.3792 21.7997 9.26296 21.7997Z" fill="#007AFF"/>
        <path fill-rule="evenodd" clip-rule="evenodd" d="M5.44331 10.1899C5.45658 10.1979 5.47087 10.2064 5.48516 10.215C5.67862 10.3335 5.84656 10.436 5.90935 10.651C6.10791 11.3311 7.45346 13.8671 9.26301 13.8671C11.0726 13.8671 12.4176 11.3311 12.6167 10.6505C12.6795 10.436 12.8469 10.3335 13.0409 10.215C13.0552 10.2064 13.0689 10.1979 13.0822 10.1899C13.5661 9.31387 13.4681 8.95623 13.4247 8.86532C13.3757 8.76185 13.2752 8.7287 13.2741 8.7287C13.022 8.68299 12.8433 8.45997 12.8571 8.20782C12.8576 8.19727 12.9087 7.18616 12.6596 6.26094C12.6356 6.17756 12.0113 4.10712 9.26301 4.10712C6.48769 4.10712 5.87106 6.24135 5.86545 6.26295C5.61686 7.18616 5.6679 8.19727 5.66841 8.20782C5.6822 8.45997 5.50354 8.68299 5.25138 8.7287C5.24678 8.73071 5.1452 8.76185 5.0962 8.87537C5.05638 8.96779 4.96859 9.32944 5.44331 10.1899ZM9.26301 14.8717C6.80876 14.8717 5.32386 12.0001 4.98339 11.091C4.97114 11.0834 4.95838 11.0764 4.94664 11.0684C4.79299 10.9744 4.68171 10.9071 4.60463 10.7735C4.04671 9.80159 3.90225 9.01601 4.17585 8.44038C4.29785 8.18371 4.47651 8.01896 4.64292 7.91398C4.64547 7.48854 4.68222 6.73561 4.87926 6.00377C5.15439 4.99869 6.42388 3.10254 9.26301 3.10254C12.1021 3.10254 13.3716 4.99869 13.6458 6.00176C13.8438 6.73511 13.8806 7.48804 13.8831 7.91398C14.049 8.01896 14.2277 8.18371 14.3497 8.44038C14.6233 9.01601 14.4793 9.80159 13.9209 10.773C13.8443 10.9071 13.733 10.9744 13.5789 11.0684C13.5671 11.0764 13.5549 11.0834 13.5426 11.091C13.2011 12.0006 11.7168 14.8717 9.26301 14.8717Z" fill="#007AFF"/>
    </symbol>

    <symbol id="settings" viewBox="0 0 21 21">
        <path fill-rule="evenodd" clip-rule="evenodd" d="M6.05247 16.9465C6.1383 16.9465 6.22458 16.9707 6.29991 17.0196C7.0906 17.53 7.95206 17.8883 8.86054 18.0837C9.04086 18.1225 9.18056 18.2668 9.21343 18.4485L9.44306 19.7122C9.48278 19.929 9.67178 20.087 9.89228 20.087H11.1075C11.3285 20.087 11.517 19.929 11.5568 19.7117L11.7864 18.4485C11.8193 18.2668 11.959 18.1225 12.1393 18.0837C13.0478 17.8883 13.9092 17.53 14.6999 17.0196C14.8551 16.9182 15.056 16.9223 15.2076 17.0278L16.2667 17.761C16.4443 17.8838 16.6972 17.86 16.8492 17.7085L17.7088 16.8493C17.865 16.6932 17.8869 16.448 17.7609 16.2668L17.0277 15.2072C16.9227 15.0552 16.9195 14.8552 17.0195 14.7C17.5303 13.9093 17.8883 13.0474 18.0836 12.1398C18.1225 11.9586 18.2663 11.8198 18.4484 11.786L19.7121 11.5564C19.9294 11.5171 20.0869 11.3281 20.0869 11.1076V9.89237C20.0869 9.67141 19.9294 9.48241 19.7121 9.4427L18.4484 9.21398C18.2663 9.1802 18.1225 9.04141 18.0836 8.86017C17.8883 7.95261 17.5303 7.0907 17.0195 6.3C16.9195 6.14478 16.9227 5.94437 17.0277 5.79235L17.7609 4.73322C17.8869 4.55198 17.865 4.30683 17.7088 4.1507L16.8492 3.29152C16.6967 3.13996 16.4438 3.11576 16.2667 3.23902L15.2076 3.9722C15.056 4.07765 14.8556 4.0813 14.6999 3.98041C13.9088 3.46957 13.0478 3.11165 12.1393 2.91626C11.959 2.87746 11.8193 2.7332 11.7864 2.5515L11.5568 1.28785C11.517 1.071 11.3285 0.913043 11.1075 0.913043H9.89228C9.67178 0.913043 9.48278 1.071 9.44306 1.2883L9.21343 2.5515C9.18056 2.7332 9.04086 2.87746 8.86054 2.91626C7.95252 3.11165 7.09106 3.46957 6.29991 3.98041C6.14469 4.0813 5.94428 4.07765 5.79271 3.9722L4.73313 3.23902C4.556 3.11622 4.30263 3.13996 4.1506 3.29152L3.29143 4.1507C3.1353 4.30683 3.11339 4.55198 3.23893 4.73322L3.9721 5.79235C4.07756 5.94437 4.08076 6.14478 3.98032 6.3C3.46993 7.0907 3.11202 7.95261 2.91617 8.86017C2.87737 9.04141 2.73356 9.1802 2.55187 9.21398L1.28776 9.44315C1.07045 9.48241 0.912952 9.67141 0.912952 9.89237V11.1076C0.912952 11.3281 1.07045 11.5171 1.28776 11.5568L2.55187 11.786C2.73356 11.8198 2.87737 11.9586 2.91617 12.1398C3.11202 13.0474 3.46993 13.9093 3.98032 14.7C4.08076 14.8552 4.07756 15.0552 3.9721 15.2072L3.23893 16.2668C3.11339 16.448 3.1353 16.6932 3.29143 16.8493L4.1506 17.7085C4.30263 17.86 4.55554 17.8833 4.73358 17.761L5.79271 17.0278C5.87078 16.9739 5.96163 16.9465 6.05247 16.9465ZM11.1075 21H9.89228C9.23032 21 8.66378 20.527 8.54463 19.8756L8.36887 18.9064C7.56037 18.7019 6.78839 18.3809 6.06617 17.9486L5.2531 18.512C4.72126 18.879 3.96115 18.8101 3.50508 18.354L2.64591 17.4948C2.17752 17.0269 2.11132 16.2914 2.48795 15.7468L3.05084 14.9342C2.61897 14.2115 2.29804 13.4391 2.09397 12.631L1.12478 12.4553C0.472865 12.3366 -9.15527e-05 11.77 -9.15527e-05 11.1076V9.89237C-9.15527e-05 9.22996 0.472865 8.66296 1.12478 8.54517L2.09397 8.36896C2.29804 7.56046 2.61897 6.78848 3.05084 6.0658L2.48795 5.2532C2.11132 4.70811 2.17752 3.97311 2.64591 3.50517L3.50508 2.646C3.96115 2.18993 4.72171 2.12054 5.2531 2.48804L6.06617 3.05139C6.78839 2.61907 7.56082 2.29813 8.36887 2.09361L8.54463 1.12487C8.66378 0.472957 9.23032 0 9.89228 0H11.1075C11.7695 0 12.3365 0.472956 12.4552 1.12441L12.6314 2.09361C13.4395 2.29813 14.2114 2.61907 14.9341 3.05139L15.7467 2.48804C16.2786 2.12054 17.0391 2.18993 17.4947 2.646L18.3544 3.50517C18.8228 3.97311 18.889 4.70811 18.5119 5.2532L17.949 6.0658C18.3808 6.78848 18.7018 7.56046 18.9063 8.36896L19.8755 8.54472C20.527 8.66296 20.9999 9.22996 20.9999 9.89237V11.1076C20.9999 11.77 20.527 12.3366 19.8755 12.4548L18.9063 12.631C18.7018 13.4391 18.3808 14.2115 17.949 14.9342L18.5119 15.7468C18.889 16.2914 18.8228 17.0269 18.3544 17.4948L17.4947 18.354C17.2363 18.6124 16.8921 18.7553 16.526 18.7553C16.2466 18.7553 15.9773 18.6708 15.7472 18.512L14.9341 17.9486C14.2119 18.3809 13.4395 18.7019 12.6314 18.9064L12.4552 19.8751C12.3365 20.527 11.7695 21 11.1075 21Z" fill="#007AFF"/>
        <path fill-rule="evenodd" clip-rule="evenodd" d="M10.5 7.30416C8.73783 7.30416 7.30435 8.73809 7.30435 10.4998C7.30435 12.2615 8.73783 13.6955 10.5 13.6955C12.2622 13.6955 13.6957 12.2615 13.6957 10.4998C13.6957 8.73809 12.2622 7.30416 10.5 7.30416ZM10.5 14.6085C8.23474 14.6085 6.3913 12.7655 6.3913 10.4998C6.3913 8.23409 8.23474 6.39111 10.5 6.39111C12.7653 6.39111 14.6087 8.23409 14.6087 10.4998C14.6087 12.7655 12.7653 14.6085 10.5 14.6085Z" fill="#007AFF"/>
    </symbol>

    <symbol id="icon_side" viewBox="0 0 90 90">
        <g filter="url(#filter0_d_1_399)">
            <rect x="16" y="15" width="55.021" height="55.021" rx="4" fill="#808FA3"/>
            </g>
            <path fill-rule="evenodd" clip-rule="evenodd" d="M50.6142 50.2536C50.0502 50.434 49.4477 50.1174 49.2695 49.5501C49.0913 48.9827 49.4057 48.379 49.9708 48.1997C52.7339 47.3271 54.1353 45.0871 54.1353 41.541C54.1353 37.4672 50.8343 34.1538 46.7753 34.1538C43.2474 34.1538 40.2096 36.6774 39.5504 40.1543L39.3313 41.3106L38.2034 40.9884C37.8414 40.8851 37.476 40.8329 37.1163 40.8329C34.9262 40.8329 33.1447 42.6213 33.1447 44.8182C33.1447 47.0162 34.9262 48.8045 37.1163 48.8045L37.3353 48.7887C37.9345 48.766 38.4326 49.2131 38.4633 49.8065C38.495 50.4011 38.0411 50.9072 37.4488 50.939L37.3773 50.9447C37.2911 50.9515 37.2048 50.9572 37.1163 50.9572C33.7438 50.9572 31 48.2031 31 44.8182C31 41.4332 33.7438 38.6791 37.1163 38.6791C37.3115 38.6791 37.5067 38.6894 37.7018 38.7087C38.9194 34.7643 42.5801 32 46.7753 32C52.0167 32 56.28 36.2803 56.28 41.541C56.28 46.0709 54.3214 49.0837 50.6142 50.2536ZM42.9535 42.476C42.9569 42.4726 42.958 42.467 42.9614 42.4635C43.1725 42.2525 43.4471 42.1481 43.7228 42.1481C43.9974 42.1481 44.2732 42.2525 44.4831 42.4635C44.4854 42.4658 44.4854 42.4704 44.4888 42.4738L47.4494 45.4445C47.8681 45.8655 47.8681 46.5475 47.4494 46.9674C47.2394 47.1773 46.9648 47.2828 46.6902 47.2828C46.4156 47.2828 46.1421 47.1773 45.9322 46.9674L44.7974 45.8281V52.606C44.7974 53.2006 44.3174 53.6828 43.724 53.6828C43.1316 53.6828 42.6516 53.2006 42.6516 52.606V45.8235L41.5123 46.9674C41.3035 47.1773 41.0289 47.2828 40.7543 47.2828C40.4797 47.2828 40.2051 47.1773 39.9963 46.9674C39.5765 46.5475 39.5765 45.8655 39.9963 45.4445L42.9535 42.476Z" fill="white"/>
            <defs>
            <filter id="filter0_d_1_399" x="0" y="0" width="89.021" height="89.021" filterUnits="userSpaceOnUse" color-interpolation-filters="sRGB">
            <feFlood flood-opacity="0" result="BackgroundImageFix"/>
            <feColorMatrix in="SourceAlpha" type="matrix" values="0 0 0 0 0 0 0 0 0 0 0 0 0 0 0 0 0 0 127 0" result="hardAlpha"/>
            <feOffset dx="1" dy="2"/>
            <feGaussianBlur stdDeviation="8.5"/>
            <feColorMatrix type="matrix" values="0 0 0 0 0 0 0 0 0 0 0 0 0 0 0 0 0 0 0.07 0"/>
            <feBlend mode="normal" in2="BackgroundImageFix" result="effect1_dropShadow_1_399"/>
            <feBlend mode="normal" in="SourceGraphic" in2="effect1_dropShadow_1_399" result="shape"/>
            </filter>
            </defs>          
    </symbol>

    <symbol id="arrow_black" viewBox="0 0 24 25">
        <path d="M15.2 10.9899L13.23 9.01993L10.02 5.80993C9.33999 5.13993 8.17999 5.61993 8.17999 6.57993V12.8099V18.4199C8.17999 19.3799 9.33999 19.8599 10.02 19.1799L15.2 13.9999C16.03 13.1799 16.03 11.8199 15.2 10.9899Z" fill="white"/> 
    </symbol>

</svg>