<svg version="1.1" xmlns="http://www.w3.org/2000/svg" xmlns:xlink="http://www.w3.org/1999/xlink">
    
    <symbol id="logo" viewBox="0 0 85 22">
        <path d="M8.97 21.33C6.99 21.33 5.5 20.84 4.5 19.86C3.5 18.86 3 17.37 3 15.39V9.18H0.12V5.79H3V2.07L7.53 0.959999V5.79H11.43V9.18H7.53V15.15C7.53 16.11 7.73 16.77 8.13 17.13C8.53 17.49 9.04 17.67 9.66 17.67C10.04 17.67 10.35 17.65 10.59 17.61C10.85 17.55 11.12 17.47 11.4 17.37V20.88C11.02 21.04 10.62 21.15 10.2 21.21C9.78 21.29 9.37 21.33 8.97 21.33ZM21.258 21.33C18.618 21.33 16.558 20.62 15.078 19.2C13.598 17.78 12.858 15.85 12.858 13.41C12.858 11.83 13.168 10.45 13.788 9.27C14.428 8.09 15.308 7.17 16.428 6.51C17.568 5.83 18.898 5.49 20.418 5.49C21.918 5.49 23.168 5.81 24.168 6.45C25.188 7.09 25.948 7.99 26.448 9.15C26.968 10.29 27.228 11.62 27.228 13.14V14.19H16.578V11.94H23.928L23.418 12.36C23.418 11.1 23.158 10.15 22.638 9.51C22.138 8.85 21.408 8.52 20.448 8.52C19.388 8.52 18.568 8.91 17.988 9.69C17.428 10.47 17.148 11.59 17.148 13.05V13.53C17.148 15.01 17.508 16.11 18.228 16.83C18.968 17.55 20.028 17.91 21.408 17.91C22.228 17.91 22.998 17.81 23.718 17.61C24.458 17.39 25.158 17.05 25.818 16.59L27.078 19.59C26.318 20.15 25.438 20.58 24.438 20.88C23.458 21.18 22.398 21.33 21.258 21.33ZM36.0122 21.33C34.6922 21.33 33.5322 21.01 32.5322 20.37C31.5322 19.73 30.7522 18.82 30.1922 17.64C29.6322 16.46 29.3522 15.04 29.3522 13.38C29.3522 11.74 29.6322 10.33 30.1922 9.15C30.7522 7.97 31.5322 7.07 32.5322 6.45C33.5322 5.81 34.6922 5.49 36.0122 5.49C37.2322 5.49 38.3222 5.79 39.2822 6.39C40.2622 6.97 40.9022 7.76 41.2022 8.76H40.8722L41.2322 5.79H45.5822C45.5222 6.45 45.4622 7.12 45.4022 7.8C45.3622 8.46 45.3422 9.11 45.3422 9.75V21H40.8422L40.8122 18.15H41.1722C40.8522 19.11 40.2122 19.88 39.2522 20.46C38.2922 21.04 37.2122 21.33 36.0122 21.33ZM37.3922 17.91C38.4322 17.91 39.2722 17.54 39.9122 16.8C40.5522 16.06 40.8722 14.92 40.8722 13.38C40.8722 11.84 40.5522 10.71 39.9122 9.99C39.2722 9.27 38.4322 8.91 37.3922 8.91C36.3522 8.91 35.5122 9.27 34.8722 9.99C34.2322 10.71 33.9122 11.84 33.9122 13.38C33.9122 14.92 34.2222 16.06 34.8422 16.8C35.4822 17.54 36.3322 17.91 37.3922 17.91ZM49.0573 21V9.75C49.0573 9.11 49.0373 8.46 48.9973 7.8C48.9573 7.12 48.8973 6.45 48.8173 5.79H53.1673L53.4973 8.61H53.1373C53.5773 7.65 54.2273 6.89 55.0873 6.33C55.9473 5.77 56.9673 5.49 58.1473 5.49C59.3073 5.49 60.2773 5.77 61.0573 6.33C61.8573 6.87 62.4273 7.72 62.7673 8.88H62.2873C62.7273 7.84 63.4273 7.02 64.3873 6.42C65.3473 5.8 66.4373 5.49 67.6573 5.49C69.3773 5.49 70.6573 6 71.4973 7.02C72.3373 8.04 72.7573 9.64 72.7573 11.82V21H68.2273V11.97C68.2273 10.91 68.0573 10.15 67.7173 9.69C67.3773 9.23 66.8273 9 66.0673 9C65.1673 9 64.4573 9.32 63.9373 9.96C63.4173 10.6 63.1573 11.48 63.1573 12.6V21H58.6273V11.97C58.6273 10.91 58.4573 10.15 58.1173 9.69C57.7773 9.23 57.2273 9 56.4673 9C55.5673 9 54.8573 9.32 54.3373 9.96C53.8373 10.6 53.5873 11.48 53.5873 12.6V21H49.0573Z" fill="white"/>
        <path d="M76.8833 21V13.32H84.6593V21H76.8833Z" fill="#0BBEF2"/>
    </symbol>

    <symbol id="arrow" viewBox="0 0 24 24">
        <path d="M8.9 19.15C8.27 19.15 7.68 19 7.16 18.7C5.93 17.99 5.25 16.56 5.25 14.68V9.32998C5.25 7.44998 5.93 6.01998 7.16 5.30998C8.39 4.59998 9.96 4.72998 11.6 5.66998L16.23 8.33998C17.86 9.27998 18.76 10.58 18.76 12C18.76 13.42 17.86 14.72 16.23 15.66L11.6 18.33C10.66 18.88 9.74 19.15 8.9 19.15ZM8.9 6.35998C8.53 6.35998 8.19 6.43998 7.9 6.60998C7.16 7.03998 6.75 7.99998 6.75 9.32998V14.67C6.75 15.99 7.16 16.96 7.91 17.39C8.66 17.82 9.7 17.69 10.85 17.03L15.48 14.36C16.63 13.7 17.26 12.86 17.26 12C17.26 11.14 16.63 10.3 15.48 9.63999L10.85 6.96998C10.14 6.55998 9.48 6.35998 8.9 6.35998Z" fill="#292D32"/>
    </symbol>

    <symbol id="calendar" viewBox="0 0 26 24">
        <path fill-rule="evenodd" clip-rule="evenodd" d="M23.218 23.729H2.78087C1.222 23.729 0 22.2763 0 20.4224V5.43061C0 3.5767 0.70087 2.25748 2.26087 2.25748H9.04348V1.12704C9.04348 0.51887 9.41313 0 10.0281 0C10.6442 0 11.1427 0.494 11.1427 1.10217L11.3043 2.25748H14.6957L14.8573 1.10217C14.8573 0.494 15.3558 0 15.9708 0C16.5869 0 17.0854 0.494 17.0854 1.10217L16.9565 2.25748H23.7391C25.2991 2.25748 26 3.5767 26 5.43061V20.4224C26 22.2763 24.778 23.729 23.218 23.729ZM23.218 4.32843H17.0854V4.77609C17.0854 5.38426 16.441 5.64878 15.8261 5.64878C15.21 5.64878 14.8573 5.38426 14.8573 4.77609V4.32843H11.1427V4.77609C11.1427 5.38426 10.7889 5.64878 10.1739 5.64878C9.55783 5.64878 8.91461 5.38426 8.91461 4.77609V4.32843L2.26087 4.51835C2.06643 4.51835 2.22809 4.7467 2.22809 5.43061L2.26087 7.90965H23.7391L23.7719 5.43061C23.7719 4.7467 23.4136 4.32843 23.218 4.32843ZM23.7719 20.4224L23.7391 10.1705H2.26087L2.22809 20.4224C2.22809 21.1063 2.06643 21.4749 2.26087 21.4749H23.7391C23.9336 21.4749 23.7719 21.1063 23.7719 20.4224ZM9.04348 18.0836H5.65217C5.65217 17.8518 5.65217 14.6923 5.65217 14.6923C5.65217 14.2864 5.53235 13.5946 5.9427 13.5946H9.40974C9.82009 13.5946 10.1524 13.9224 10.1524 14.3294V17.7569C10.1524 18.1627 9.45383 18.0836 9.04348 18.0836ZM5.65217 18.0836C5.24183 18.0836 5.65217 17.7557 5.65217 18.0836V18.0836Z" fill="white"/> 
    </symbol>   

    <symbol id="notification" viewBox="0 0 40 46">
        <path fill-rule="evenodd" clip-rule="evenodd" d="M38.095 33.6136L35.8013 31.32C35.5941 31.1147 35.6217 30.1653 35.6217 29.8731V20.0038C35.6217 13.3222 31.0502 7.45979 24.7496 5.35959V5.17602C24.7496 2.51918 22.5013 0.265015 19.8307 0.265015C17.1679 0.265015 14.9098 2.51918 14.9098 5.17602V5.35959C8.60921 7.45979 4.03969 13.3222 4.03969 20.0038V29.8731C4.03969 30.1653 4.06535 31.1147 3.86007 31.32L1.56642 33.6136C0.855829 34.3242 0.0899658 35.6428 0.0899658 36.8626C0.0899658 38.4023 1.4855 39.6557 3.20079 39.6557H11.8385C12.6497 43.0882 15.7487 45.6523 19.4359 45.6523C23.1231 45.6523 26.913 43.1751 27.7262 39.7425L36.4606 39.6557C38.1759 39.6557 39.5694 38.4023 39.5694 36.8626C39.5694 35.6467 38.8056 34.3262 38.095 33.6136ZM19.4359 42.1822C17.689 42.1822 16.181 41.144 15.498 39.6557H23.3718C22.6889 41.144 21.1808 42.1822 19.4359 42.1822ZM25.7523 35.7948C25.4799 35.7276 26.0247 35.7276 25.7523 35.7948H13.9091C13.6367 35.7276 14.1815 35.7276 13.9091 35.7948H4.0397C4.12655 35.4552 4.00219 35.8303 4.0397 35.7948L6.32347 33.7696C7.17816 32.9168 7.98745 31.0811 7.98745 29.8731V20.0037C7.98745 14.3822 11.5187 9.67643 17.0554 8.35196C17.8371 8.16444 18.3878 7.46767 18.3878 6.6643V5.176C18.3878 4.45356 19.1063 4.21275 19.8307 4.21275C20.5748 4.21275 21.2697 4.43974 21.2697 5.176V6.6643C21.2697 7.46767 21.8223 8.16444 22.604 8.35196C28.1407 9.67643 31.674 14.3822 31.674 20.0037V29.8731C31.674 31.0811 32.4832 32.9168 33.3379 33.7715L35.6296 36.0612C35.6671 36.0987 35.5862 35.7494 35.6217 35.7948H25.7523Z" fill="white"/>
    </symbol>   


    <symbol id="arrow_24px" viewBox="0 0 24 24">
        <path d="M16.1187 11.004H5.10875C4.55875 11.004 4.10875 11.454 4.10875 12.004C4.10875 12.554 4.55875 13.004 5.10875 13.004H16.1187V14.794C16.1187 15.244 16.6587 15.464 16.9687 15.144L19.7487 12.354C19.9387 12.154 19.9387 11.844 19.7487 11.644L16.9687 8.85398C16.6587 8.53398 16.1187 8.76398 16.1187 9.20398V11.004Z" fill="#4DA0FD"/>
    </symbol>    
</svg>